<?xml version="1.0" standalone="no"?>
<!DOCTYPE svg PUBLIC "-//W3C//DTD SVG 1.1//EN" "http://www.w3.org/Graphics/SVG/1.1/DTD/svg11.dtd" >
<svg xmlns="http://www.w3.org/2000/svg" xmlns:xlink="http://www.w3.org/1999/xlink" version="1.1">
<metadata>
Created by FontForge 20170731 at Mon Feb  6 19:03:02 2023
 By Aleksey,,,
Copyright (c) 1985, 1987, 1989, 1990, 1991, 1992, 1997 Adobe Systems Incorporated.  All Rights Reserved.ITC Avant Garde Gothic is a registered trademark of International Typeface Corporation.
</metadata>
<defs>
<font id="AvantGardeCE-Book" horiz-adv-x="1134" >
  <font-face 
    font-family="AvantGarde CE"
    font-weight="400"
    font-stretch="normal"
    units-per-em="2048"
    panose-1="4 0 5 0 0 0 0 0 0 0"
    ascent="1593"
    descent="-455"
    x-height="1120"
    cap-height="1516"
    bbox="-158 -455.467 2351 1956"
    underline-thickness="102"
    underline-position="-307"
    unicode-range="U+0020-25CA"
  />
<missing-glyph horiz-adv-x="567" 
 />
    <glyph glyph-name=".notdef" horiz-adv-x="567" 
 />
    <glyph glyph-name=".null" horiz-adv-x="0" 
 />
    <glyph glyph-name="nonmarkingreturn" horiz-adv-x="682" 
 />
    <glyph glyph-name="space" unicode=" " horiz-adv-x="567" 
 />
    <glyph glyph-name="space" unicode="&#xa0;" horiz-adv-x="567" 
 />
    <glyph glyph-name="exclam" unicode="!" horiz-adv-x="604" 
d="M227 0v258h152v-258h-152zM227 395v1121h152v-1121h-152z" />
    <glyph glyph-name="quotedbl" unicode="&#x22;" horiz-adv-x="632" 
d="M215 909h-117l-24 607h166zM535 909h-117l-25 607h166z" />
    <glyph glyph-name="numbersign" unicode="#" 
d="M207 0l59 422h-198v137h219l53 395h-219v140h239l60 422h141l-59 -422h254l59 422h141l-59 -422h170v-138h-190l-56 -397h189v-137h-207l-60 -422h-141l60 422h-254l-60 -422h-141zM735 956h-252l-55 -397h252z" />
    <glyph glyph-name="dollar" unicode="$" 
d="M494 -143v202q-151 17 -251 130.5t-100 248.5v29h152q0 -66 19 -117.5t48 -82t68 -50t74 -26.5t71 -7q124 0 195.5 74t71.5 199q0 44 -12 82t-27.5 64t-44 49t-49 35.5t-56.5 25.5t-51 17.5t-47 12.5q-34 8 -55.5 14t-63.5 22t-70.5 33t-64.5 47t-58.5 64.5t-38.5 85
t-18 109.5q0 143 84.5 244.5t223.5 126.5v172h151v-166q80 -11 141.5 -44.5t96 -74t57 -92t30.5 -91.5t9 -79h-152q3 102 -64.5 175t-191.5 73q-102 -2 -167.5 -63t-65.5 -181q2 -41 13 -74t32.5 -57t42.5 -40.5t56 -30.5t58.5 -21t63.5 -18q33 -9 54 -15t66 -24.5t76 -37.5
t70.5 -53t64 -73t41.5 -95.5t17 -121.5q0 -90 -38 -175t-119.5 -148.5t-190.5 -74.5v-202h-151z" />
    <glyph glyph-name="percent" unicode="%" horiz-adv-x="1587" 
d="M924 340q0 -105 71.5 -178.5t175.5 -73.5t176 73.5t72 178.5t-72 178.5t-176 73.5t-175.5 -73.5t-71.5 -178.5zM801 340q0 152 108.5 259.5t261.5 107.5t262 -107.5t109 -259.5t-109 -259.5t-262 -107.5t-261.5 107.5t-108.5 259.5zM43 1171q0 152 109 259.5t262 107.5
t261.5 -107.5t108.5 -259.5t-108.5 -259t-261.5 -107t-262 107t-109 259zM166 1171q0 -105 72 -178t176 -73t176 73t72 178t-72 178.5t-176 73.5t-176 -73.5t-72 -178.5zM1290 1516l-868 -1516h-139l868 1516h139z" />
    <glyph glyph-name="ampersand" unicode="&#x26;" horiz-adv-x="1550" 
d="M1235 987h170l-281 -534l383 -373l-108 -105l-346 338q-17 -32 -27.5 -51t-37 -59t-50.5 -66t-62.5 -59.5t-78 -53.5t-93.5 -34.5t-112 -14.5q-105 0 -196 40t-151.5 105.5t-95 148.5t-34.5 169q0 292 350 451q-39 39 -60.5 63t-51.5 66.5t-44 89t-14 98.5q0 142 108 239
t256 97q93 0 176 -45.5t135 -128t52 -180.5q0 -61 -24 -115.5t-57 -91t-77 -66.5t-76 -45.5t-61 -25.5l287 -283zM938 422l-365 358q-28 -9 -74.5 -33.5t-74.5 -44.5q-158 -115 -158 -272q0 -132 97 -221.5t217 -89.5q42 0 81.5 11.5t69 28t59 45t48 51t40.5 59t32.5 55.5
t27.5 53zM870 1202q3 76 -59 136.5t-154 60.5q-92 -3 -151.5 -60t-59.5 -131q1 -68 46 -127.5t126 -130.5q102 40 146 70q109 73 106 182z" />
    <glyph glyph-name="quotesingle" unicode="'" horiz-adv-x="405" 
d="M262 909h-117l-24 607h166z" />
    <glyph glyph-name="parenleft" unicode="(" horiz-adv-x="755" 
d="M727 1550v-153q-102 -61 -185.5 -145.5t-136.5 -171.5t-89.5 -181.5t-52 -177t-15.5 -156.5q0 -67 12.5 -143t46 -172t85 -185t138.5 -179.5t197 -157.5v-148q-86 28 -174 88.5t-170 153t-146 204t-102.5 252.5t-38.5 287t38.5 287t102.5 252.5t146 204t170 153t174 88.5
z" />
    <glyph glyph-name="parenright" unicode=")" horiz-adv-x="755" 
d="M29 1397v153q86 -28 174 -88.5t170 -153t145.5 -204t102 -252.5t38.5 -287t-38.5 -287t-102 -252.5t-145.5 -204t-170 -153t-174 -88.5v148q110 67 197 157.5t138.5 179.5t85 185t46 172t12.5 143q0 74 -15.5 156.5t-52 177t-89.5 181.5t-136.5 171.5t-185.5 145.5z" />
    <glyph glyph-name="asterisk" unicode="*" horiz-adv-x="870" 
d="M379 1280l-2 236h119l-4 -238l223 76l37 -113l-226 -70l140 -188l-97 -70l-137 193l-135 -191l-96 70l141 189l-223 69l37 115z" />
    <glyph glyph-name="plus" unicode="+" horiz-adv-x="1241" 
d="M690 1036v-448h447v-139h-447v-449h-139v449h-447v139h447v448h139z" />
    <glyph glyph-name="comma" unicode="," horiz-adv-x="567" 
d="M29 -137l180 395h151l-180 -395h-151z" />
    <glyph glyph-name="hyphen" unicode="-" horiz-adv-x="679" 
d="M61 645h557v-137h-557v137z" />
    <glyph glyph-name="hyphen" unicode="&#xad;" horiz-adv-x="679" 
d="M61 645h557v-137h-557v137z" />
    <glyph glyph-name="period" unicode="." horiz-adv-x="567" 
d="M209 0v258h151v-258h-151z" />
    <glyph glyph-name="slash" unicode="/" horiz-adv-x="894" 
d="M90 -205l574 1721h161l-579 -1721h-156z" />
    <glyph glyph-name="zero" unicode="0" 
d="M1075 995v-442q0 -215 -76 -344q-39 -69 -95.5 -118.5t-118 -73.5t-114.5 -34t-104 -10t-104 10t-114.5 34t-118 73.5t-95.5 118.5q-76 129 -76 344v442q0 160 58 279q67 132 192 200t258 68q86 0 169 -27.5t160 -89.5t122 -151q57 -117 57 -279zM924 575v386
q0 17 -1.5 39.5t-6.5 70.5t-20 96.5t-38 81.5q-48 75 -130.5 115.5t-160.5 40.5t-160.5 -40.5t-130.5 -115.5q-65 -95 -65 -288v-386q0 -214 57 -303q102 -161 299 -161t299 161q58 91 58 303z" />
    <glyph glyph-name="one" unicode="1" 
d="M537 0v1378h-261v138h412v-1516h-151z" />
    <glyph glyph-name="two" unicode="2" 
d="M82 0v137l532 512q58 56 83.5 81.5t67.5 70t60 71.5t39.5 64.5t29 72.5t7.5 74q0 79 -39.5 152t-116.5 121.5t-172 48.5q-13 0 -27.5 -1t-49 -8.5t-64.5 -21t-65.5 -42t-60.5 -67t-42.5 -100.5t-17.5 -139h-152q-1 115 31 206.5t82.5 148t117.5 94t130.5 52.5t126.5 15
q90 0 168 -29t132.5 -76.5t94 -108t58 -124t18.5 -123.5q0 -127 -64.5 -232t-214.5 -247l-487 -465h757v-137h-962z" />
    <glyph glyph-name="three" unicode="3" 
d="M322 1137h-152q2 94 33.5 171t84 128t121 78.5t144.5 27.5q168 0 275.5 -114t107.5 -275q0 -98 -42 -163.5t-114 -121.5q64 -33 112 -78.5t74.5 -88t43 -90t21.5 -80.5t5 -64q0 -145 -67.5 -259.5t-175.5 -174.5t-234 -60q-35 0 -73 5.5t-85.5 21t-91 39t-86.5 63.5
t-75 90.5t-53.5 123.5t-24.5 159h151q6 -70 15.5 -114t37.5 -89q44 -73 117.5 -117t167.5 -44q138 0 232 94t94 254q0 111 -72 203.5t-186 119.5q-55 12 -176 15v133q3 0 22.5 -1t28.5 -1q69 0 122 18t82.5 44t48 60t24 61.5t5.5 53.5q0 37 -12 76t-37.5 77t-73.5 62.5
t-112 24.5q-95 0 -161 -72.5t-66 -195.5z" />
    <glyph glyph-name="four" unicode="4" 
d="M793 0v276h-764v138l735 1102h180v-1102h137v-138h-137v-276h-151zM203 414h590v893h-5z" />
    <glyph glyph-name="five" unicode="5" 
d="M139 768l137 748h682v-138h-561l-75 -417q129 71 258 71q140 0 256 -70.5t182.5 -192t66.5 -267.5q0 -102 -38 -198t-104.5 -169.5t-164 -117.5t-207.5 -44q-31 0 -65 4.5t-81.5 18t-91.5 35.5t-90.5 61.5t-83.5 90.5t-65.5 127t-40.5 167h152q18 -168 122 -267t244 -99
q104 0 188.5 56.5t129.5 145.5t45 189q0 167 -105.5 281t-255.5 114q-91 0 -171.5 -46t-143.5 -126z" />
    <glyph glyph-name="six" unicode="6" 
d="M608 1513h172l-350 -514l4 -2q71 33 141 33q145 0 262.5 -71t182.5 -191t65 -264q0 -99 -35.5 -193.5t-99.5 -170t-164 -121.5t-219 -46q-155 0 -274.5 74t-181.5 196t-62 269q0 62 13 119t45 119t54 98t70 108zM201 498q0 -65 23 -131.5t66.5 -124.5t115.5 -94.5
t161 -36.5q159 0 263 113t104 278q0 161 -104.5 276t-262.5 115q-150 0 -258 -111t-108 -284z" />
    <glyph glyph-name="seven" unicode="7" 
d="M225 0l625 1378h-721v138h877v-138l-621 -1378h-160z" />
    <glyph glyph-name="eight" unicode="8" 
d="M344 846q-90 59 -134 139t-44 164q0 88 34 163t90 124.5t128 77.5t149 28q168 0 285 -115t117 -284q0 -20 -6 -50t-22.5 -77t-56 -93t-96.5 -77q73 -34 127 -85.5t82 -108.5t41 -109.5t13 -102.5q0 -121 -61.5 -227.5t-173.5 -173t-247 -66.5q-137 0 -250 66.5t-174 173
t-61 227.5q0 76 27 153.5t87.5 148t145.5 104.5zM236 446q0 -87 33 -154.5t84.5 -105t107.5 -56.5t110 -19q56 0 112.5 22t105.5 61.5t79.5 104t30.5 141.5q0 78 -31.5 143t-81.5 104t-107.5 60t-113.5 21q-135 0 -232 -97t-97 -225zM317 1155q0 -40 17 -82.5t47.5 -79.5
t80 -60.5t107.5 -23.5q105 0 176.5 73.5t71.5 172.5q0 96 -68.5 173t-177.5 77q-110 0 -182 -74t-72 -176z" />
    <glyph glyph-name="nine" unicode="9" 
d="M526 0h-172l351 514l-5 2q-62 -33 -141 -33q-145 0 -262.5 71.5t-182.5 191.5t-65 264q0 99 35.5 193.5t99.5 169.5t164 121t219 46q155 0 274.5 -74t181.5 -196t62 -269q0 -62 -13 -119t-45 -119t-54 -98t-70 -108zM934 1016q0 52 -14 105t-44 104t-72 90.5t-103.5 63.5
t-133.5 24q-159 0 -262.5 -113t-103.5 -278q0 -162 104 -276.5t262 -114.5q150 0 258.5 111t108.5 284z" />
    <glyph glyph-name="colon" unicode=":" horiz-adv-x="567" 
d="M209 0v258h151v-258h-151zM209 864v258h151v-258h-151z" />
    <glyph glyph-name="semicolon" unicode=";" horiz-adv-x="567" 
d="M29 -137l180 395h151l-180 -395h-151zM209 864v258h151v-258h-151z" />
    <glyph glyph-name="less" unicode="&#x3c;" horiz-adv-x="1241" 
d="M1135 1053v-140l-871 -395l871 -395v-139l-1041 471v127z" />
    <glyph glyph-name="equal" unicode="=" horiz-adv-x="1241" 
d="M1137 795v-140h-1033v140h1033zM104 242v139h1033v-139h-1033z" />
    <glyph glyph-name="greater" unicode="&#x3e;" horiz-adv-x="1241" 
d="M106 -16v139l871 395l-871 395v140l1041 -471v-127z" />
    <glyph glyph-name="question" unicode="?" horiz-adv-x="1210" 
d="M283 1040h-152v39q0 89 37 173t100 147.5t153.5 102t190.5 38.5q134 0 241 -62t165.5 -165.5t58.5 -227.5q0 -48 -11 -90.5t-24.5 -72.5t-47.5 -70.5t-57.5 -65t-76.5 -75.5q-33 -32 -53 -54t-50.5 -64t-47 -92t-19.5 -106h-151q-1 60 14.5 118t37 99t55.5 84t56 65
t52 50q47 43 69.5 66t51 59.5t40 74t11.5 81.5q0 117 -91 211t-229 94q-168 0 -276 -150q-22 -32 -33 -73t-12.5 -66t-1.5 -68zM539 0v258h151v-258h-151z" />
    <glyph glyph-name="at" unicode="@" horiz-adv-x="1775" 
d="M1190 1122h123l-86 -485q-19 -97 -19 -109q-3 -39 16 -66.5t54 -27.5q99 0 171.5 126.5t72.5 305.5q0 136 -48 244.5t-130.5 176.5t-189.5 104t-228 36q-143 0 -267.5 -51t-213 -139.5t-139 -213t-50.5 -267.5q0 -93 21 -183t72.5 -179.5t128 -156t198 -108t272.5 -41.5
q259 0 488 102l30 -104q-241 -113 -518 -113q-171 0 -311 46.5t-232 123.5t-155 180t-90 211.5t-27 223.5q8 229 112 405.5t280 273.5t399 105q206 0 368.5 -79.5t257.5 -234t95 -360.5q0 -146 -50.5 -273t-136 -201.5t-184.5 -74.5q-18 0 -37 3.5t-41.5 15t-40 28.5
t-30.5 47.5t-15 69.5h-4q-99 -164 -283 -164q-136 0 -227.5 102t-91.5 267q0 87 29 170.5t79.5 148.5t126.5 104.5t164 39.5q197 0 254 -182h4zM1116 807q0 103 -58 166t-145 63q-124 0 -205 -101t-81 -243q0 -124 61 -191t158 -67q84 -1 147 55t93 139.5t30 178.5z" />
    <glyph glyph-name="A" unicode="A" horiz-adv-x="1515" 
d="M25 0l647 1516h170l651 -1516h-166l-219 510h-705l-221 -510h-157zM758 1343l-297 -696h588z" />
    <glyph glyph-name="B" unicode="B" horiz-adv-x="1175" 
d="M152 0v1516h380q98 0 177.5 -19.5t130 -49.5t88 -71.5t56 -78.5t29.5 -79t13 -64t2 -42q0 -51 -13.5 -97t-28 -74t-44.5 -60.5t-41 -41.5t-39 -32q116 -46 184 -145t68 -228q0 -108 -47 -202t-127 -148q-91 -54 -177 -70t-231 -14h-380zM303 725v-588h213q103 0 166 8
t121 31q71 29 115.5 100.5t44.5 157.5q0 85 -51 155.5t-128 100.5q-53 21 -112 28t-183 7h-186zM303 1378v-516h191q96 0 151.5 8.5t108.5 34.5q54 28 88.5 87t34.5 126q0 89 -64 166q-44 50 -116.5 72t-190.5 22h-203z" />
    <glyph glyph-name="C" unicode="C" horiz-adv-x="1665" 
d="M1409 397h170q-59 -108 -142.5 -191t-176.5 -133t-189 -75t-190 -25q-157 0 -302.5 60t-253.5 162.5t-172.5 249.5t-64.5 311q0 220 107.5 400.5t288.5 282t395 101.5q111 0 215.5 -29.5t180.5 -75t139.5 -103t101.5 -109.5t57 -97h-170q-47 70 -110 123.5t-120 81.5
t-119.5 45.5t-102 22t-74.5 4.5q-172 0 -320 -91.5t-232.5 -241t-84.5 -316.5q0 -172 91 -321.5t238.5 -235.5t309.5 -86q27 0 52.5 2.5t71.5 10t92.5 27t100 49t109 80.5t104.5 117z" />
    <glyph glyph-name="D" unicode="D" horiz-adv-x="1523" 
d="M152 0v1516h442q141 0 271.5 -32.5t221.5 -92.5q95 -59 165.5 -142.5t107.5 -171.5t54.5 -168.5t17.5 -154.5q0 -48 -7.5 -102t-31 -127t-60 -140t-100.5 -137t-146 -123q-91 -60 -221.5 -92.5t-271.5 -32.5h-442zM303 1378v-1241h219q73 0 119 2.5t123 12.5t147 37.5
t131 70.5q238 202 238 500q0 149 -69 282t-189 220q-99 65 -213.5 90.5t-286.5 25.5h-219z" />
    <glyph glyph-name="E" unicode="E" horiz-adv-x="1097" 
d="M143 0v1516h830v-138h-678v-544h655v-138h-655v-559h678v-137h-830z" />
    <glyph glyph-name="F" unicode="F" horiz-adv-x="993" 
d="M143 0v1516h766v-138h-614v-549h592v-137h-592v-692h-152z" />
    <glyph glyph-name="G" unicode="G" horiz-adv-x="1785" 
d="M668 696h1028q-13 -164 -87.5 -302.5t-186.5 -229t-249 -141t-278 -50.5q-166 0 -317.5 64.5t-259.5 171t-172 251t-64 298.5q0 147 59.5 288t163 251t258 177.5t330.5 67.5q115 0 222.5 -30t187 -77t144.5 -105.5t104.5 -113.5t58.5 -104h-176q-70 122 -215 207.5
t-324 85.5q-140 0 -264.5 -54t-211 -143.5t-136.5 -207.5t-50 -244t50.5 -243.5t137 -206t212.5 -142t268 -53.5q116 0 223 40t184.5 105t131 143.5t73.5 159.5h-845v137z" />
    <glyph glyph-name="H" unicode="H" horiz-adv-x="1398" 
d="M156 0v1516h151v-668h785v668h151v-1516h-151v711h-785v-711h-151z" />
    <glyph glyph-name="I" unicode="I" horiz-adv-x="462" 
d="M156 0v1516h151v-1516h-151z" />
    <glyph glyph-name="J" unicode="J" horiz-adv-x="987" 
d="M823 1516v-1035q-2 -108 -8.5 -165.5t-30.5 -122.5q-50 -104 -144 -162t-216 -58q-72 0 -140.5 23t-128.5 68.5t-99 122t-44 173.5h150q9 -117 85 -183t179 -66q40 0 73.5 9t57.5 22t43 36t31 42.5t20 51.5t12 52t6.5 55.5t2.5 52v49.5v1035h151z" />
    <glyph glyph-name="K" unicode="K" horiz-adv-x="1210" 
d="M166 0v1516h151v-871h5l694 871h194l-600 -740l600 -776h-190l-506 657l-197 -241v-416h-151z" />
    <glyph glyph-name="L" unicode="L" horiz-adv-x="946" 
d="M168 0v1516h151v-1379h627v-137h-778z" />
    <glyph glyph-name="M" unicode="M" horiz-adv-x="1882" 
d="M156 0v1516h233l551 -1291l553 1291h233v-1516h-151v1350h-4l-567 -1350h-130l-563 1350h-4v-1350h-151z" />
    <glyph glyph-name="N" unicode="N" horiz-adv-x="1515" 
d="M154 0v1516h204l846 -1258h4v1258h152v-1516h-152l-899 1333h-4v-1333h-151z" />
    <glyph glyph-name="O" unicode="O" horiz-adv-x="1779" 
d="M88 750q0 139 44.5 265t122 220.5t178.5 164.5t218 106t238 36q158 0 305 -60.5t256.5 -163.5t175.5 -250t66 -310t-66 -310t-176 -250.5t-257 -164t-304 -60.5q-127 0 -248 39.5t-220 112t-174.5 167.5t-117 214t-41.5 244zM240 750q0 -127 52.5 -245.5t140 -204.5
t207.5 -137.5t249 -51.5q173 0 322.5 85.5t239 234.5t89.5 325q0 174 -87.5 323.5t-237.5 237.5t-326 88q-170 0 -318.5 -84t-239.5 -236t-91 -335z" />
    <glyph glyph-name="P" unicode="P" horiz-adv-x="1212" 
d="M154 0v1516h421q148 0 235.5 -22t156.5 -67q87 -59 137.5 -153t50.5 -211t-50.5 -211.5t-137.5 -153.5q-68 -45 -156 -66.5t-236 -21.5h-270v-610h-151zM305 1378v-630h219q99 0 136.5 1.5t81 9.5t85.5 27q87 40 132 114t45 163t-45 162.5t-132 113.5q-60 27 -114 33
t-189 6h-219z" />
    <glyph glyph-name="Q" unicode="Q" horiz-adv-x="1783" 
d="M1690 111v-138q-67 0 -118.5 9.5t-93 31.5t-64.5 39t-62 51q-68 -45 -144 -74.5t-143 -40t-102 -13.5t-66 -3q-223 0 -411 105.5t-296 284.5t-108 389q0 119 35.5 234.5t106 215.5t167 176t228 120t280.5 44q172 0 324 -61.5t259.5 -167.5t169.5 -253.5t62 -314.5
q0 -317 -250 -552q62 -53 111.5 -67.5t114.5 -14.5zM322 442q15 -30 41 -65.5t77.5 -85t113 -87.5t153.5 -65.5t194 -27.5q197 0 334 98q-157 124 -207 153q-69 43 -149 70.5t-152.5 37.5t-106.5 12.5t-63 2.5q-84 0 -134 -11t-101 -32zM260 571q52 16 77.5 23t97.5 18
t145 11q91 0 174 -12.5t155 -39.5t129 -54t119 -71t100.5 -74.5t96.5 -80.5q209 202 209 459q0 111 -35 213t-97 181.5t-144.5 138.5t-181.5 90.5t-204 31.5q-126 0 -246 -47t-214 -131t-151 -210.5t-57 -273.5q0 -81 27 -172z" />
    <glyph glyph-name="R" unicode="R" horiz-adv-x="1243" 
d="M143 0v1516h385q250 0 373 -58q127 -60 198.5 -175.5t71.5 -256.5q0 -83 -29.5 -162t-85 -143.5t-142.5 -106.5t-193 -49l428 -565h-191l-514 686q150 0 213 4t113 19q119 34 184.5 124t65.5 197q0 90 -46.5 172.5t-119.5 118.5q-65 34 -129.5 45.5t-165.5 11.5h-264
v-1378h-152z" />
    <glyph glyph-name="S" unicode="S" horiz-adv-x="1019" 
d="M45 424h152q6 -143 91 -228t224 -85q124 0 214.5 85.5t90.5 215.5q0 78 -31 136.5t-94 96t-97.5 51.5t-100.5 34q-10 4 -15 5q-125 38 -173 60q-220 102 -220 340q0 176 122.5 291.5t303.5 115.5q182 0 301 -121t119 -291h-152q0 114 -80 194.5t-188 80.5
q-124 0 -199 -79.5t-75 -184.5q0 -38 10.5 -70t24.5 -55.5t43.5 -45t52.5 -34.5t68 -29.5t72 -24.5t82 -24q5 -1 7 -2q76 -20 137.5 -54t99.5 -68.5t65.5 -78.5t40 -76.5t20 -72t8 -54.5t0.5 -34q0 -116 -57.5 -218t-163.5 -164.5t-236 -62.5q-62 0 -124 14.5t-124 48.5
t-109 84.5t-77.5 129t-32.5 174.5z" />
    <glyph glyph-name="T" unicode="T" horiz-adv-x="872" 
d="M360 0v1378h-348v138h846v-138h-346v-1378h-152z" />
    <glyph glyph-name="U" unicode="U" horiz-adv-x="1341" 
d="M154 1516h151v-945q0 -182 51 -274q101 -186 314 -186q212 0 313 186q51 92 51 274v945h152v-945q0 -190 -58 -315q-37 -81 -94.5 -139.5t-122 -88t-123.5 -42.5t-118 -13t-118 13t-124 42.5t-122.5 88t-94.5 139.5q-57 123 -57 315v945z" />
    <glyph glyph-name="V" unicode="V" horiz-adv-x="1437" 
d="M641 0l-625 1516h168l535 -1328l536 1328h164l-628 -1516h-150z" />
    <glyph glyph-name="W" unicode="W" horiz-adv-x="1966" 
d="M455 0l-432 1516h155l371 -1321h4l360 1321h142l362 -1319h4l371 1319h154l-435 -1516h-192l-334 1243h-4l-332 -1243h-194z" />
    <glyph glyph-name="X" unicode="X" horiz-adv-x="1247" 
d="M16 0l514 774l-485 742h178l404 -607l399 607h176l-487 -742l518 -774h-180l-426 647l-432 -647h-179z" />
    <glyph glyph-name="Y" unicode="Y" horiz-adv-x="1212" 
d="M528 0v506l-526 1010h168l432 -850l445 850h165l-532 -1010v-506h-152z" />
    <glyph glyph-name="Z" unicode="Z" horiz-adv-x="983" 
d="M25 0v137l745 1241h-723v138h893v-138l-743 -1241h766v-137h-938z" />
    <glyph glyph-name="bracketleft" unicode="[" horiz-adv-x="718" 
d="M690 -213v-154q-54 15 -106 39.5t-110.5 71.5t-101.5 106.5t-71.5 150.5t-28.5 198v774q0 118 35.5 217t84 158t111.5 103.5t106.5 63t80.5 27.5v-153q-126 -55 -196 -152.5t-70 -263.5v-748q0 -54 3 -92t18 -92t42 -94.5t78.5 -83.5t124.5 -76z" />
    <glyph glyph-name="backslash" unicode="\" horiz-adv-x="1239" 
d="M403 1516l574 -1721h-156l-579 1721h161z" />
    <glyph glyph-name="bracketright" unicode="]" horiz-adv-x="718" 
d="M29 -367v154q73 33 124.5 76t78.5 83.5t42 94.5t18 92t3 92v748q0 166 -70 263.5t-196 152.5v153q24 -6 53 -16.5t70.5 -33.5t80 -52t78.5 -75t69 -100t47.5 -130t18.5 -162v-774q0 -107 -28.5 -198t-71 -150.5t-101 -106.5t-110.5 -71.5t-106 -39.5z" />
    <glyph glyph-name="asciicircum" unicode="^" horiz-adv-x="1241" 
d="M109 629l446 887h131l447 -887h-144l-371 737l-364 -737h-145z" />
    <glyph glyph-name="underscore" unicode="_" horiz-adv-x="1024" 
d="M0 -154h1024v-102h-1024v102z" />
    <glyph glyph-name="grave" unicode="`" horiz-adv-x="774" 
d="M207 1610l407 -224l-67 -118l-406 219z" />
    <glyph glyph-name="a" unicode="a" horiz-adv-x="1398" 
d="M1272 1120v-1120h-144v197h-4q-44 -65 -102.5 -112t-119 -70t-112.5 -32.5t-102 -9.5q-129 0 -242 47t-191.5 127t-123.5 188t-45 228q0 112 43 217.5t119.5 187.5t191.5 131.5t248 49.5q51 0 103.5 -9.5t113.5 -32.5t119 -70t100 -113h4v196h144zM229 557
q0 -191 128.5 -323t330.5 -132q120 0 223 59t164.5 164.5t61.5 233.5q0 122 -57.5 227.5t-161.5 169.5t-230 64q-191 0 -325 -128t-134 -335z" />
    <glyph glyph-name="b" unicode="b" horiz-adv-x="1396" 
d="M139 0v1516h144v-592h4q45 65 103.5 111.5t118 70t112 33.5t102.5 10q133 0 248 -49.5t191.5 -131.5t119.5 -187.5t43 -217.5q0 -120 -45 -228t-123.5 -188t-191.5 -127t-242 -47q-68 0 -138 16.5t-155 69.5t-143 138h-4v-197h-144zM1182 557q0 207 -134 335t-325 128
q-126 0 -230 -64t-161.5 -169.5t-57.5 -227.5q0 -128 61.5 -233.5t164.5 -164.5t223 -59q202 0 330.5 132t128.5 323z" />
    <glyph glyph-name="c" unicode="c" horiz-adv-x="1325" 
d="M1085 330h158q-185 -357 -557 -357q-128 0 -241 47.5t-191.5 127.5t-124 187.5t-45.5 223.5q0 119 47.5 228.5t128 188.5t192 126t234.5 47q78 0 156 -20.5t154.5 -62t142 -115t104.5 -169.5h-158q-43 81 -111 136.5t-139 78.5t-145 23q-83 0 -164.5 -31t-148.5 -87
t-108.5 -144.5t-41.5 -194.5q0 -192 132.5 -326.5t330.5 -134.5q82 0 152 22.5t117 60t76.5 72.5t49.5 73z" />
    <glyph glyph-name="d" unicode="d" horiz-adv-x="1402" 
d="M1266 1516v-1516h-144v197h-4q-42 -63 -100.5 -109.5t-119 -70t-114 -34t-102.5 -10.5q-129 0 -242 47t-191.5 127t-123.5 188t-45 228q0 112 43 217.5t119.5 187.5t191.5 131.5t248 49.5q70 0 141 -17t155 -69.5t140 -134.5h4v588h144zM223 557q0 -191 128.5 -323
t330.5 -132q120 0 222.5 59t164 164.5t61.5 233.5q0 122 -57.5 227.5t-161 169.5t-229.5 64q-191 0 -325 -128t-134 -335z" />
    <glyph glyph-name="e" unicode="e" horiz-adv-x="1331" 
d="M1245 508h-1020q5 -107 67 -201t160.5 -149.5t206.5 -55.5q147 3 254 78.5t148 186.5h151q-60 -172 -210.5 -283t-339.5 -111q-155 0 -289 76.5t-214.5 212t-80.5 297.5q0 117 45.5 225t122.5 187t185 127.5t228 50.5q89 -1 170 -26t143 -66.5t109 -90.5t78 -104
q97 -154 86 -354zM225 637h875q-16 95 -62 170.5t-108 120.5t-130.5 68.5t-137.5 23.5q-68 0 -137 -23.5t-131.5 -68.5t-108 -120.5t-60.5 -170.5z" />
    <glyph glyph-name="f" unicode="f" horiz-adv-x="643" 
d="M213 0v991h-174v129h174q1 45 3 73.5t11.5 77t25.5 80.5t48 71t76 62.5t112 40t154 17.5v-133q-60 0 -107.5 -11.5t-77 -27t-50.5 -43.5t-31 -48.5t-15 -56.5t-5.5 -52.5t-0.5 -49.5h287v-129h-287v-991h-143z" />
    <glyph glyph-name="g" unicode="g" horiz-adv-x="1378" 
d="M1241 1120v-944q0 -62 -2 -99t-10.5 -96.5t-31 -112t-58.5 -101.5q-40 -56 -97 -97t-107 -61.5t-106 -32t-84.5 -14t-50.5 -2.5q-55 0 -111.5 8.5t-129 36t-133 70.5t-115.5 119.5t-84 176.5h151q13 -33 31.5 -65t54.5 -73.5t79.5 -71.5t110.5 -51t144 -21
q59 0 114.5 13.5t109.5 45t93.5 78t64 119t24.5 161.5v99h-4q-60 -114 -179.5 -173t-252.5 -59q-111 0 -216 42t-187.5 116t-132.5 185t-50 239q0 129 50 242t132.5 189t187.5 119.5t216 43.5q46 0 94 -8.5t110 -30.5t122.5 -71t105.5 -119h4v200h143zM219 559
q0 -121 57 -226t159.5 -168t226.5 -63q86 0 160 29.5t125 77t88 107.5t54 122.5t17 120.5q0 187 -129 324t-315 137q-124 0 -226.5 -64t-159.5 -169.5t-57 -227.5z" />
    <glyph glyph-name="h" unicode="h" horiz-adv-x="1249" 
d="M127 0v1516h143v-539h4q42 66 129.5 119t214.5 53q218 0 355 -137q139 -136 139 -396v-616h-143v616q0 205 -107 308q-53 52 -119.5 74t-124.5 22t-124 -22t-119 -74q-49 -47 -77.5 -125.5t-27.5 -182.5v-616h-143z" />
    <glyph glyph-name="i" unicode="i" horiz-adv-x="409" 
d="M133 0v1120h143v-1120h-143zM133 1257v259h143v-259h-143z" />
    <glyph glyph-name="j" unicode="j" horiz-adv-x="415" 
d="M281 1120v-1042q0 -54 -1 -82.5t-7 -77t-18.5 -80.5t-36.5 -71t-60 -70q-45 -40 -96 -61t-79 -24.5t-73 -4.5v141q69 2 114.5 26t69.5 70t33.5 101t9.5 133v1042h144zM137 1257v259h144v-259h-144z" />
    <glyph glyph-name="k" unicode="k" horiz-adv-x="1028" 
d="M143 0v1516h144v-1080h4l522 684h184l-442 -565l465 -555h-184l-369 442l-180 -229v-213h-144z" />
    <glyph glyph-name="l" unicode="l" horiz-adv-x="409" 
d="M133 0v1516h143v-1516h-143z" />
    <glyph glyph-name="m" unicode="m" horiz-adv-x="1921" 
d="M279 1120v-129q44 78 131 118t174 40q40 0 88 -10t103.5 -32.5t105.5 -67t80 -105.5q30 61 80 105.5t105.5 67t103 32.5t87.5 10q56 0 113 -13t119 -47.5t109 -87t77.5 -139.5t30.5 -196v-666h-144v649q0 144 -51 234q-37 63 -102 100t-152 37t-152 -37t-102 -100
q-51 -90 -51 -234v-649h-143v649q0 144 -51 234q-37 63 -102 100t-152 37t-152 -37t-102 -100q-51 -90 -51 -234v-649h-144v1120h144zM279 991l-5 4v-4h5z" />
    <glyph glyph-name="n" unicode="n" horiz-adv-x="1249" 
d="M133 0v1120h143v-143h5q42 66 129.5 119t214.5 53q217 0 354 -137q139 -136 139 -396v-616h-143v616q0 205 -107 308q-53 52 -119 74t-124 22t-124.5 -22t-119.5 -74q-49 -47 -77.5 -125.5t-27.5 -182.5v-616h-143z" />
    <glyph glyph-name="o" unicode="o" horiz-adv-x="1341" 
d="M86 553q0 129 50 242t131.5 189.5t187 120.5t215.5 44q162 0 298 -83t212.5 -218t76.5 -287t-75.5 -286.5t-212 -218t-299.5 -83.5q-120 0 -229 48.5t-186.5 128t-123 185.5t-45.5 218zM229 555q0 -126 62.5 -231.5t164 -163.5t216.5 -58q82 0 160.5 32t141.5 90
t101.5 147.5t38.5 195.5t-41.5 194.5t-107.5 143.5t-142.5 85t-150.5 30q-62 0 -124.5 -19.5t-120 -59t-101.5 -94t-70.5 -130.5t-26.5 -162z" />
    <glyph glyph-name="p" unicode="p" horiz-adv-x="1396" 
d="M131 -393v1513h143v-196h5q46 66 104.5 112.5t118 69.5t111 33t102.5 10q133 0 248 -49.5t191.5 -131.5t119.5 -187.5t43 -217.5q0 -120 -45 -228t-123.5 -188t-191.5 -127t-242 -47q-68 0 -138 16.5t-155 69.5t-143 138h-5v-590h-143zM1174 557q0 207 -134 335t-325 128
q-126 0 -230 -64t-161.5 -169.5t-57.5 -227.5q0 -128 61.5 -233.5t164.5 -164.5t223 -59q202 0 330.5 132t128.5 323z" />
    <glyph glyph-name="q" unicode="q" horiz-adv-x="1396" 
d="M1262 1120v-1513h-144v590h-4q-43 -65 -101.5 -112t-119.5 -70t-113 -32.5t-102 -9.5q-129 0 -242 47t-191.5 127t-123.5 188t-45 228q0 112 43 217.5t119.5 187.5t191.5 131.5t248 49.5q51 0 104 -10t113.5 -33t118.5 -70t100 -112h4v196h144zM219 557
q0 -191 128.5 -323t330.5 -132q120 0 222.5 59t164 164.5t61.5 233.5q0 122 -57.5 227.5t-161 169.5t-229.5 64q-191 0 -325 -128t-134 -335z" />
    <glyph glyph-name="r" unicode="r" horiz-adv-x="616" 
d="M133 0v1120h143v-162h5q24 57 59.5 95t80 57t83.5 27t92 12v-152q-161 -13 -242 -110q-78 -97 -78 -232v-655h-143z" />
    <glyph glyph-name="s" unicode="s" horiz-adv-x="794" 
d="M49 332h144q1 -60 18 -105t39 -68t52 -37t50.5 -17t40.5 -3q100 0 154.5 54.5t54.5 146.5q0 28 -6.5 52.5t-16 42.5t-26.5 34.5t-30.5 26.5t-36.5 21.5t-36.5 17.5t-37.5 15t-33 13q-34 12 -53.5 19t-55 23t-57.5 31t-49.5 40t-43.5 52t-27 65t-11 82q0 81 35.5 150.5
t110 115t173.5 45.5q128 0 217.5 -87.5t88.5 -217.5h-144q-7 92 -58 134t-110 42q-80 0 -125 -52t-45 -116q0 -34 14 -62.5t32 -46.5t50 -34.5t51.5 -24t53.5 -18.5q41 -13 70 -25t70 -32.5t69.5 -46t55 -60t40.5 -81t14 -102.5q2 -152 -89 -249t-263 -97q-61 0 -120.5 21.5
t-111.5 63t-83 113t-29 161.5z" />
    <glyph glyph-name="t" unicode="t" horiz-adv-x="694" 
d="M264 0v991h-235v129h235v396h144v-396h268v-129h-268v-991h-144z" />
    <glyph glyph-name="u" unicode="u" horiz-adv-x="1245" 
d="M1108 1120v-1120h-135v174h-4q-17 -35 -45 -67.5t-70.5 -64t-106 -50.5t-137.5 -19q-78 0 -145 17t-113.5 45t-75.5 53t-51 53q-98 120 -98 361v618h143v-616q0 -195 80 -295q95 -107 260 -107q147 0 238 91q59 59 88 129.5t29 205.5v592h143z" />
    <glyph glyph-name="v" unicode="v" 
d="M487 0l-473 1120h154l395 -942l402 942h153l-473 -1120h-158z" />
    <glyph glyph-name="w" unicode="w" horiz-adv-x="1701" 
d="M453 0l-426 1120h149l352 -938h4l256 803h125l258 -803h5l356 938h147l-428 -1120h-161l-238 745h-4l-234 -745h-161z" />
    <glyph glyph-name="x" unicode="x" horiz-adv-x="983" 
d="M25 0l383 569l-383 551h172l295 -432l292 432h174l-383 -551l383 -569h-170l-296 449l-297 -449h-170z" />
    <glyph glyph-name="y" unicode="y" horiz-adv-x="1097" 
d="M272 -393l195 430l-436 1083h151l357 -893l381 893h151l-649 -1513h-150z" />
    <glyph glyph-name="z" unicode="z" horiz-adv-x="870" 
d="M20 0v125l621 866h-600v129h772v-129l-614 -862h651v-129h-830z" />
    <glyph glyph-name="braceleft" unicode="{" horiz-adv-x="718" 
d="M678 1516v-123h-103q-98 0 -98 -176v-375q0 -67 -20.5 -121.5t-51.5 -85t-57.5 -46.5t-48.5 -22v-6q22 -3 48.5 -17t57.5 -43t51.5 -85t20.5 -129v-375q0 -176 98 -176h103v-123h-135q-93 0 -155 71t-62 197v373q0 108 -54 174.5t-129 69.5v131q73 3 128 72t55 173v373
q0 126 62 197.5t155 71.5h135z" />
    <glyph glyph-name="bar" unicode="|" horiz-adv-x="1376" 
d="M612 1593h152v-2048h-152v2048z" />
    <glyph glyph-name="braceright" unicode="}" horiz-adv-x="718" 
d="M41 1393v123h135q93 0 155 -71.5t62 -197.5v-373q0 -104 54.5 -173t127.5 -72v-131q-74 -3 -128 -69.5t-54 -174.5v-373q0 -126 -62 -197t-155 -71h-135v123h102q99 0 99 176v375q0 73 20.5 129t51.5 85t57.5 43t48.5 17v6q-22 6 -48.5 22t-57.5 46.5t-51.5 85
t-20.5 121.5v375q0 176 -99 176h-102z" />
    <glyph glyph-name="asciitilde" unicode="~" horiz-adv-x="1241" 
d="M1020 653l74 -102q-23 -32 -38.5 -52t-41 -46.5t-49.5 -41t-57 -25.5t-70 -11q-86 0 -209 67q-46 26 -72 39t-73 27t-91 14q-60 0 -100 -43t-72 -112l-74 102q92 176 256 176q83 0 228 -65q20 -9 70.5 -34t82 -36.5t56.5 -11.5q29 0 54.5 12t50.5 41t37 45.5t38 56.5z
" />
    <glyph glyph-name="sterling" unicode="&#xa3;" 
d="M59 0v129h303q72 112 72 244q-1 58 -24 110.5t-45.5 80.5t-72 79t-67.5 72h-217v129h121q-45 108 -45 200q0 134 58 246.5t169.5 182t253.5 69.5q118 0 222 -50.5t176.5 -151t87.5 -232.5h-148q-22 133 -113.5 219t-224.5 86q-141 0 -235 -102.5t-94 -266.5
q0 -51 9.5 -91t19.5 -59.5t30 -49.5h584v-129h-461v-4q165 -146 168 -338q0 -22 -2 -42.5t-6.5 -42t-8 -36t-11.5 -37t-11 -30.5t-12.5 -31t-10.5 -25h88q32 0 63.5 3.5t76.5 13.5t82.5 32t71 55t53.5 86.5t20 122.5q0 28 -18 107h151q18 -59 18 -115q0 -45 -9 -92.5
t-42 -111.5t-85.5 -112.5t-150 -83t-225.5 -34.5h-559z" />
    <glyph glyph-name="currency" unicode="&#xa4;" 
d="M567 956q-130 0 -222.5 -95.5t-92.5 -223.5q0 -131 92 -227.5t223 -96.5q133 0 226.5 96.5t93.5 227.5q0 128 -93.5 223.5t-226.5 95.5zM106 86l-90 86l201 201q-88 109 -88 264q0 74 24 144.5t64 119.5l-201 197l90 90l197 -201q109 88 264 88q77 0 147.5 -24.5
t116.5 -63.5l201 201l86 -90l-196 -197q40 -49 64 -119.5t24 -144.5q0 -155 -88 -264l196 -201l-86 -86l-201 197q-109 -88 -264 -88t-264 88z" />
    <glyph glyph-name="brokenbar" unicode="&#xa6;" horiz-adv-x="1376" 
d="M612 1440h152v-717h-152v717zM612 416h152v-717h-152v717z" />
    <glyph glyph-name="section" unicode="&#xa7;" horiz-adv-x="1259" 
d="M987 1241h-151q0 72 -52.5 118t-144.5 46q-98 0 -155.5 -55t-57.5 -144q0 -115 117 -172l301 -149q34 -17 55.5 -29t53 -33t51.5 -43.5t40 -52.5t29.5 -68.5t9.5 -83.5q0 -62 -42 -142.5t-123 -133.5q106 -91 106 -244q0 -65 -27.5 -126.5t-76 -110t-122 -78
t-159.5 -29.5q-182 0 -296 119t-120 301h152q9 -142 81.5 -212.5t182.5 -70.5q106 0 169.5 63.5t63.5 143.5q0 70 -35.5 118.5t-148.5 107.5l-317 163q-38 20 -65.5 39t-61 51t-52 77.5t-18.5 99.5q0 46 14.5 89t31.5 70.5t48 59t45.5 43t42.5 33.5q-82 82 -82 206
q0 139 104 234.5t261 95.5q156 0 252 -79.5t96 -221.5zM805 750l-359 178q-60 -34 -90 -92.5t-30 -116.5q0 -104 106 -156l385 -192q55 32 85 88.5t30 113.5q0 110 -127 177z" />
    <glyph glyph-name="dieresis" unicode="&#xa8;" horiz-adv-x="755" 
d="M150 1567h151v-258h-151v258zM453 1567h151v-258h-151v258z" />
    <glyph glyph-name="copyright" unicode="&#xa9;" horiz-adv-x="1529" 
d="M1169 915h-112q-47 207 -281 207q-150 0 -238.5 -96.5t-88.5 -265.5t88.5 -266t238.5 -97q234 0 281 207h112q-14 -128 -124 -219.5t-269 -91.5q-198 0 -319 132t-121 335t121 335t319 132q159 0 269 -92t124 -220zM766 1540q160 0 304.5 -62.5t248.5 -167.5
t165.5 -249.5t61.5 -302.5q0 -160 -62.5 -305t-167.5 -249.5t-249 -166.5t-301 -62q-161 0 -306.5 62.5t-250 168t-166 250t-61.5 302.5q0 157 61 301.5t165.5 250t250 168t307.5 62.5zM764 1436q-140 0 -265 -54.5t-213.5 -146.5t-140 -216.5t-51.5 -260.5
q0 -137 52.5 -262t141.5 -216.5t213.5 -145.5t262.5 -54q136 0 260 53.5t214 144t143 216t53 264.5q0 136 -52 260.5t-140.5 216.5t-213.5 146.5t-264 54.5z" />
    <glyph glyph-name="guillemotleft" unicode="&#xab;" horiz-adv-x="870" 
d="M313 166l-231 412l231 407l121 -63l-192 -344l192 -345zM670 166l-232 412l232 407l121 -63l-195 -344l195 -345z" />
    <glyph glyph-name="logicalnot" unicode="&#xac;" horiz-adv-x="1241" 
d="M1137 795v-572h-140v432h-893v140h1033z" />
    <glyph glyph-name="registered" unicode="&#xae;" horiz-adv-x="1529" 
d="M430 1198h377q20 0 35.5 -0.5t50.5 -5.5t61.5 -13.5t60 -26.5t55.5 -43t37 -65t15 -90q0 -80 -40 -138t-126 -79v-4q86 -25 116.5 -76.5t33.5 -146.5q6 -118 10 -149t19 -58h-113q-13 22 -18.5 53.5t-8.5 112.5q0 59 -7 94t-30 64.5t-69.5 42t-122.5 12.5h-223v-379h-113
v895zM543 1094v-310h225q242 0 242 164q0 146 -222 146h-245zM766 1540q160 0 304.5 -62.5t248.5 -167.5t165.5 -249.5t61.5 -302.5q0 -160 -62.5 -305t-167.5 -249.5t-249 -166.5t-301 -62q-161 0 -306.5 62.5t-250 168t-166 250t-61.5 302.5q0 157 61 301.5t165.5 250
t250 168t307.5 62.5zM764 1436q-140 0 -265 -54.5t-213.5 -146.5t-140 -216.5t-51.5 -260.5q0 -137 52.5 -262t141.5 -216.5t213.5 -145.5t262.5 -54q136 0 260 53.5t214 144t143 216t53 264.5q0 136 -52 260.5t-140.5 216.5t-213.5 146.5t-264 54.5z" />
    <glyph glyph-name="degree" unicode="&#xb0;" horiz-adv-x="819" 
d="M115 1157q0 123 86 209t209 86t209 -86t86 -209t-86 -209t-209 -86t-209 86t-86 209zM217 1157q0 -76 53 -134t140 -58t139.5 57.5t52.5 134.5t-52.5 135t-139.5 58t-140 -58t-53 -135z" />
    <glyph glyph-name="plusminus" unicode="&#xb1;" horiz-adv-x="1241" 
d="M551 696v365h139v-365h447v-139h-447v-364h-139v364h-447v139h447zM104 -49v139h1033v-139h-1033z" />
    <glyph glyph-name="acute" unicode="&#xb4;" horiz-adv-x="768" 
d="M160 1386l407 224l66 -123l-406 -219z" />
    <glyph glyph-name="mu" unicode="&#xb5;" horiz-adv-x="1245" 
d="M164 -377v1497h143v-581q0 -152 45 -258q84 -179 269 -179q95 0 168 51t114 146q33 97 33 231v590h143v-1120h-143v147h-4q-9 -18 -21 -35.5t-38.5 -44.5t-58.5 -46t-83 -33.5t-110 -14.5q-209 0 -310 150h-4v-500h-143z" />
    <glyph glyph-name="mu" unicode="&#x3bc;" horiz-adv-x="1245" 
d="M164 -377v1497h143v-581q0 -152 45 -258q84 -179 269 -179q95 0 168 51t114 146q33 97 33 231v590h143v-1120h-143v147h-4q-9 -18 -21 -35.5t-38.5 -44.5t-58.5 -46t-83 -33.5t-110 -14.5q-209 0 -310 150h-4v-500h-143z" />
    <glyph glyph-name="paragraph" unicode="&#xb6;" horiz-adv-x="1155" 
d="M498 -225v938h-35q-183 0 -300.5 110t-117.5 287q0 112 50 201t130 139q48 30 134.5 48t183.5 18h585v-115h-131v-1626h-127v1626h-245v-1626h-127z" />
    <glyph glyph-name="periodcentered" unicode="&#xb7;" horiz-adv-x="567" 
d="M209 389v258h151v-258h-151z" />
    <glyph glyph-name="periodcentered" unicode="&#x2219;" horiz-adv-x="567" 
d="M209 389v258h151v-258h-151z" />
    <glyph glyph-name="cedilla" unicode="&#xb8;" horiz-adv-x="663" 
d="M362 0l-57 -115q37 11 68 9q67 -4 108 -54.5t39 -122.5q-6 -80 -61 -128.5t-127 -43.5q-65 5 -111 43t-59 115l86 4q6 -37 30.5 -60t57.5 -26q43 -3 70 26t30 72q3 45 -21 73.5t-65 31.5q-26 2 -46.5 -5t-28 -14t-19.5 -20l-74 43l94 178z" />
    <glyph glyph-name="guillemotright" unicode="&#xbb;" horiz-adv-x="870" 
d="M555 166l-119 67l193 345l-193 344l119 63l233 -407zM199 166l-119 67l192 345l-192 344l119 63l233 -407z" />
    <glyph glyph-name="Aacute" unicode="&#xc1;" horiz-adv-x="1515" 
d="M25 0l647 1516h170l651 -1516h-166l-219 510h-705l-221 -510h-157zM758 1343l-297 -696h588zM535 1720l407 224l66 -123l-406 -219z" />
    <glyph glyph-name="Acircumflex" unicode="&#xc2;" horiz-adv-x="1515" 
d="M25 0l647 1516h170l651 -1516h-166l-219 510h-705l-221 -510h-157zM758 1343l-297 -696h588zM395 1642l297 256h135l293 -256h-182l-176 150l-180 -150h-187z" />
    <glyph glyph-name="Adieresis" unicode="&#xc4;" horiz-adv-x="1515" 
d="M25 0l647 1516h170l651 -1516h-166l-219 510h-705l-221 -510h-157zM758 1343l-297 -696h588zM530 1901h152v-259h-152v259zM834 1901h151v-259h-151v259z" />
    <glyph glyph-name="Ccedilla" unicode="&#xc7;" horiz-adv-x="1665" 
d="M1409 397h170q-59 -108 -142.5 -191t-176.5 -133t-188.5 -75t-188.5 -25l-45 -88q37 11 67 9q67 -4 108.5 -55t39.5 -122q-6 -80 -61.5 -128.5t-127.5 -43.5q-65 5 -111 43t-59 115l86 4q6 -37 30.5 -60t57.5 -26q43 -3 70.5 26t30.5 72q3 45 -21 73.5t-65 31.5
q-26 2 -46.5 -5t-29 -14t-19.5 -20l-73 43l80 152q-144 15 -273.5 80t-225.5 166t-152 239t-56 291q0 220 107.5 400.5t288.5 282t395 101.5q111 0 215.5 -29.5t180.5 -75t139.5 -103t101.5 -109.5t57 -97h-170q-47 70 -110 123.5t-120 81.5t-119.5 45.5t-102 22t-74.5 4.5
q-172 0 -320 -91.5t-232.5 -241t-84.5 -316.5q0 -172 91 -321.5t238.5 -235.5t309.5 -86q27 0 52.5 2.5t71.5 10t92.5 27t100 49t109 80.5t104.5 117z" />
    <glyph glyph-name="Eacute" unicode="&#xc9;" horiz-adv-x="1097" 
d="M143 0v1516h830v-138h-678v-544h655v-138h-655v-559h678v-137h-830zM326 1720l407 224l66 -123l-406 -219z" />
    <glyph glyph-name="Edieresis" unicode="&#xcb;" horiz-adv-x="1097" 
d="M143 0v1516h830v-138h-678v-544h655v-138h-655v-559h678v-137h-830zM322 1901h151v-259h-151v259zM625 1901h151v-259h-151v259z" />
    <glyph glyph-name="Iacute" unicode="&#xcd;" horiz-adv-x="462" 
d="M156 0v1516h151v-1516h-151zM88 1720l408 224l65 -123l-405 -219z" />
    <glyph glyph-name="Icircumflex" unicode="&#xce;" horiz-adv-x="462" 
d="M156 0v1516h151v-1516h-151zM-131 1642l297 256h135l293 -256h-182l-176 150l-181 -150h-186z" />
    <glyph glyph-name="Oacute" unicode="&#xd3;" horiz-adv-x="1779" 
d="M88 750q0 139 44.5 265t122 220.5t178.5 164.5t218 106t238 36q158 0 305 -60.5t256.5 -163.5t175.5 -250t66 -310t-66 -310t-176 -250.5t-257 -164t-304 -60.5q-127 0 -248 39.5t-220 112t-174.5 167.5t-117 214t-41.5 244zM240 750q0 -127 52.5 -245.5t140 -204.5
t207.5 -137.5t249 -51.5q173 0 322.5 85.5t239 234.5t89.5 325q0 174 -87.5 323.5t-237.5 237.5t-326 88q-170 0 -318.5 -84t-239.5 -236t-91 -335zM748 1720l407 224l66 -123l-406 -219z" />
    <glyph glyph-name="Ocircumflex" unicode="&#xd4;" horiz-adv-x="1779" 
d="M88 750q0 139 44.5 265t122 220.5t178.5 164.5t218 106t238 36q158 0 305 -60.5t256.5 -163.5t175.5 -250t66 -310t-66 -310t-176 -250.5t-257 -164t-304 -60.5q-127 0 -248 39.5t-220 112t-174.5 167.5t-117 214t-41.5 244zM240 750q0 -127 52.5 -245.5t140 -204.5
t207.5 -137.5t249 -51.5q173 0 322.5 85.5t239 234.5t89.5 325q0 174 -87.5 323.5t-237.5 237.5t-326 88q-170 0 -318.5 -84t-239.5 -236t-91 -335zM528 1642l297 256h136l292 -256h-182l-176 150l-180 -150h-187z" />
    <glyph glyph-name="Otilde" unicode="&#xd5;" horiz-adv-x="1779" 
d="M88 750q0 139 44.5 265t122 220.5t178.5 164.5t218 106t238 36q158 0 305 -60.5t256.5 -163.5t175.5 -250t66 -310t-66 -310t-176 -250.5t-257 -164t-304 -60.5q-127 0 -248 39.5t-220 112t-174.5 167.5t-117 214t-41.5 244zM240 750q0 -127 52.5 -245.5t140 -204.5
t207.5 -137.5t249 -51.5q173 0 322.5 85.5t239 234.5t89.5 325q0 174 -87.5 323.5t-237.5 237.5t-326 88q-170 0 -318.5 -84t-239.5 -236t-91 -335zM1169 1847l74 -100q-108 -80 -201 -80q-14 0 -28 1.5t-28 4.5t-24 5.5t-24.5 8t-20.5 8t-20.5 8.5t-17.5 7q-50 24 -77 32.5
t-57 8.5q-73 0 -137 -61l-71 102q92 86 213 86q33 0 63.5 -7t49 -14.5t50.5 -23.5q1 -1 20.5 -9.5t33.5 -13.5t35.5 -10.5t37.5 -5.5q30 0 53 10.5t76 42.5z" />
    <glyph glyph-name="Odieresis" unicode="&#xd6;" horiz-adv-x="1779" 
d="M88 750q0 139 44.5 265t122 220.5t178.5 164.5t218 106t238 36q158 0 305 -60.5t256.5 -163.5t175.5 -250t66 -310t-66 -310t-176 -250.5t-257 -164t-304 -60.5q-127 0 -248 39.5t-220 112t-174.5 167.5t-117 214t-41.5 244zM240 750q0 -127 52.5 -245.5t140 -204.5
t207.5 -137.5t249 -51.5q173 0 322.5 85.5t239 234.5t89.5 325q0 174 -87.5 323.5t-237.5 237.5t-326 88q-170 0 -318.5 -84t-239.5 -236t-91 -335zM662 1901h151v-259h-151v259zM965 1901h151v-259h-151v259z" />
    <glyph glyph-name="multiply" unicode="&#xd7;" horiz-adv-x="1241" 
d="M250 49l-98 98l372 373l-370 369l98 98l371 -369l368 369l99 -98l-369 -369l371 -373l-99 -98l-370 373z" />
    <glyph glyph-name="Uacute" unicode="&#xda;" horiz-adv-x="1341" 
d="M154 1516h151v-945q0 -182 51 -274q101 -186 314 -186q212 0 313 186q51 92 51 274v945h152v-945q0 -190 -58 -315q-37 -81 -94.5 -139.5t-122 -88t-123.5 -42.5t-118 -13t-118 13t-124 42.5t-122.5 88t-94.5 139.5q-57 123 -57 315v945zM487 1720l408 224l66 -123
l-406 -219z" />
    <glyph glyph-name="Udieresis" unicode="&#xdc;" horiz-adv-x="1341" 
d="M154 1516h151v-945q0 -182 51 -274q101 -186 314 -186q212 0 313 186q51 92 51 274v945h152v-945q0 -190 -58 -315q-37 -81 -94.5 -139.5t-122 -88t-123.5 -42.5t-118 -13t-118 13t-124 42.5t-122.5 88t-94.5 139.5q-57 123 -57 315v945zM442 1901h152v-259h-152v259z
M745 1901h152v-259h-152v259z" />
    <glyph glyph-name="Yacute" unicode="&#xdd;" horiz-adv-x="1212" 
d="M528 0v506l-526 1010h168l432 -850l445 850h165l-532 -1010v-506h-152zM424 1720l407 224l66 -123l-405 -219z" />
    <glyph glyph-name="germandbls" unicode="&#xdf;" 
d="M125 0v985q0 146 16 227.5t56 141.5q53 83 149.5 135.5t202.5 52.5q179 0 299.5 -118t120.5 -310q0 -116 -46 -191.5t-135 -123.5q130 -45 208.5 -141.5t78.5 -247.5q0 -88 -25.5 -161.5t-68 -123.5t-98.5 -85t-115 -51t-119 -16q-131 0 -233 66.5t-144 183.5h-4v-223
h-143zM268 985v-569h105q3 -137 83 -225.5t191 -88.5q69 0 132.5 32t108 101t44.5 160q0 143 -94 221q-43 39 -107 59t-103 22.5t-100 2.5h-69v138q47 -1 92 4.5t96.5 24.5t89 49.5t63 85t25.5 126.5q0 126 -78.5 205.5t-197.5 79.5q-75 0 -136.5 -37.5t-93.5 -97.5
q-31 -55 -41 -117.5t-10 -175.5z" />
    <glyph glyph-name="aacute" unicode="&#xe1;" horiz-adv-x="1398" 
d="M1272 1120v-1120h-144v197h-4q-44 -65 -102.5 -112t-119 -70t-112.5 -32.5t-102 -9.5q-129 0 -242 47t-191.5 127t-123.5 188t-45 228q0 112 43 217.5t119.5 187.5t191.5 131.5t248 49.5q51 0 103.5 -9.5t113.5 -32.5t119 -70t100 -113h4v196h144zM229 557
q0 -191 128.5 -323t330.5 -132q120 0 223 59t164.5 164.5t61.5 233.5q0 122 -57.5 227.5t-161.5 169.5t-230 64q-191 0 -325 -128t-134 -335zM475 1386l408 224l65 -123l-405 -219z" />
    <glyph glyph-name="acircumflex" unicode="&#xe2;" horiz-adv-x="1398" 
d="M1272 1120v-1120h-144v197h-4q-44 -65 -102.5 -112t-119 -70t-112.5 -32.5t-102 -9.5q-129 0 -242 47t-191.5 127t-123.5 188t-45 228q0 112 43 217.5t119.5 187.5t191.5 131.5t248 49.5q51 0 103.5 -9.5t113.5 -32.5t119 -70t100 -113h4v196h144zM229 557
q0 -191 128.5 -323t330.5 -132q120 0 223 59t164.5 164.5t61.5 233.5q0 122 -57.5 227.5t-161.5 169.5t-230 64q-191 0 -325 -128t-134 -335zM338 1309l297 256h135l293 -256h-182l-176 149l-181 -149h-186z" />
    <glyph glyph-name="adieresis" unicode="&#xe4;" horiz-adv-x="1398" 
d="M1272 1120v-1120h-144v197h-4q-44 -65 -102.5 -112t-119 -70t-112.5 -32.5t-102 -9.5q-129 0 -242 47t-191.5 127t-123.5 188t-45 228q0 112 43 217.5t119.5 187.5t191.5 131.5t248 49.5q51 0 103.5 -9.5t113.5 -32.5t119 -70t100 -113h4v196h144zM229 557
q0 -191 128.5 -323t330.5 -132q120 0 223 59t164.5 164.5t61.5 233.5q0 122 -57.5 227.5t-161.5 169.5t-230 64q-191 0 -325 -128t-134 -335zM471 1567h152v-258h-152v258zM774 1567h152v-258h-152v258z" />
    <glyph glyph-name="ccedilla" unicode="&#xe7;" horiz-adv-x="1325" 
d="M1085 330h158q-184 -351 -545 -355l-45 -90q37 11 68 9q67 -4 108 -54.5t39 -122.5q-6 -80 -61 -128.5t-127 -43.5q-65 5 -111 43t-59 115l86 4q6 -37 30.5 -60t57.5 -26q43 -3 70 26t30 72q3 45 -21 73.5t-65 31.5q-26 2 -46.5 -5t-28 -14t-19.5 -20l-74 43l80 152
q-151 16 -272 99t-187.5 209t-66.5 271q0 119 47.5 228.5t128 188.5t192 126t234.5 47q78 0 156 -20.5t154.5 -62t142 -115t104.5 -169.5h-158q-43 81 -111 136.5t-139 78.5t-145 23q-83 0 -164.5 -31t-148.5 -87t-108.5 -144.5t-41.5 -194.5q0 -192 132.5 -326.5
t330.5 -134.5q82 0 152 22.5t117 60t76.5 72.5t49.5 73z" />
    <glyph glyph-name="eacute" unicode="&#xe9;" horiz-adv-x="1331" 
d="M1245 508h-1020q5 -107 67 -201t160.5 -149.5t206.5 -55.5q147 3 254 78.5t148 186.5h151q-60 -172 -210.5 -283t-339.5 -111q-155 0 -289 76.5t-214.5 212t-80.5 297.5q0 117 45.5 225t122.5 187t185 127.5t228 50.5q89 -1 170 -26t143 -66.5t109 -90.5t78 -104
q97 -154 86 -354zM225 637h875q-16 95 -62 170.5t-108 120.5t-130.5 68.5t-137.5 23.5q-68 0 -137 -23.5t-131.5 -68.5t-108 -120.5t-60.5 -170.5zM442 1386l408 224l65 -123l-405 -219z" />
    <glyph glyph-name="edieresis" unicode="&#xeb;" horiz-adv-x="1331" 
d="M1245 508h-1020q5 -107 67 -201t160.5 -149.5t206.5 -55.5q147 3 254 78.5t148 186.5h151q-60 -172 -210.5 -283t-339.5 -111q-155 0 -289 76.5t-214.5 212t-80.5 297.5q0 117 45.5 225t122.5 187t185 127.5t228 50.5q89 -1 170 -26t143 -66.5t109 -90.5t78 -104
q97 -154 86 -354zM225 637h875q-16 95 -62 170.5t-108 120.5t-130.5 68.5t-137.5 23.5q-68 0 -137 -23.5t-131.5 -68.5t-108 -120.5t-60.5 -170.5zM438 1567h152v-258h-152v258zM741 1567h152v-258h-152v258z" />
    <glyph glyph-name="iacute" unicode="&#xed;" horiz-adv-x="409" 
d="M133 0v1120h143v-1120h-143zM61 1386l408 224l66 -123l-406 -219z" />
    <glyph glyph-name="icircumflex" unicode="&#xee;" horiz-adv-x="409" 
d="M133 0v1120h143v-1120h-143zM-158 1309l297 256h135l293 -256h-182l-176 149l-180 -149h-187z" />
    <glyph glyph-name="oacute" unicode="&#xf3;" horiz-adv-x="1341" 
d="M86 553q0 129 50 242t131.5 189.5t187 120.5t215.5 44q162 0 298 -83t212.5 -218t76.5 -287t-75.5 -286.5t-212 -218t-299.5 -83.5q-120 0 -229 48.5t-186.5 128t-123 185.5t-45.5 218zM229 555q0 -126 62.5 -231.5t164 -163.5t216.5 -58q82 0 160.5 32t141.5 90
t101.5 147.5t38.5 195.5t-41.5 194.5t-107.5 143.5t-142.5 85t-150.5 30q-62 0 -124.5 -19.5t-120 -59t-101.5 -94t-70.5 -130.5t-26.5 -162zM508 1386l407 224l66 -123l-406 -219z" />
    <glyph glyph-name="ocircumflex" unicode="&#xf4;" horiz-adv-x="1341" 
d="M86 553q0 129 50 242t131.5 189.5t187 120.5t215.5 44q162 0 298 -83t212.5 -218t76.5 -287t-75.5 -286.5t-212 -218t-299.5 -83.5q-120 0 -229 48.5t-186.5 128t-123 185.5t-45.5 218zM229 555q0 -126 62.5 -231.5t164 -163.5t216.5 -58q82 0 160.5 32t141.5 90
t101.5 147.5t38.5 195.5t-41.5 194.5t-107.5 143.5t-142.5 85t-150.5 30q-62 0 -124.5 -19.5t-120 -59t-101.5 -94t-70.5 -130.5t-26.5 -162zM309 1309l297 256h135l293 -256h-182l-176 149l-180 -149h-187z" />
    <glyph glyph-name="otilde" unicode="&#xf5;" horiz-adv-x="1341" 
d="M86 553q0 129 50 242t131.5 189.5t187 120.5t215.5 44q162 0 298 -83t212.5 -218t76.5 -287t-75.5 -286.5t-212 -218t-299.5 -83.5q-120 0 -229 48.5t-186.5 128t-123 185.5t-45.5 218zM229 555q0 -126 62.5 -231.5t164 -163.5t216.5 -58q82 0 160.5 32t141.5 90
t101.5 147.5t38.5 195.5t-41.5 194.5t-107.5 143.5t-142.5 85t-150.5 30q-62 0 -124.5 -19.5t-120 -59t-101.5 -94t-70.5 -130.5t-26.5 -162zM950 1513l74 -100q-108 -80 -201 -80q-14 0 -28 1.5t-28.5 4.5t-24 5.5t-24.5 8t-20.5 7.5t-21.5 8.5t-17 7.5q-50 24 -76.5 32.5
t-56.5 8.5q-73 0 -137 -61l-72 102q92 86 213 86q33 0 63.5 -7t49.5 -14.5t51 -23.5q1 -1 20.5 -9.5t33.5 -13.5t35.5 -10.5t37.5 -5.5q30 0 53 10.5t76 42.5z" />
    <glyph glyph-name="odieresis" unicode="&#xf6;" horiz-adv-x="1341" 
d="M86 553q0 129 50 242t131.5 189.5t187 120.5t215.5 44q162 0 298 -83t212.5 -218t76.5 -287t-75.5 -286.5t-212 -218t-299.5 -83.5q-120 0 -229 48.5t-186.5 128t-123 185.5t-45.5 218zM229 555q0 -126 62.5 -231.5t164 -163.5t216.5 -58q82 0 160.5 32t141.5 90
t101.5 147.5t38.5 195.5t-41.5 194.5t-107.5 143.5t-142.5 85t-150.5 30q-62 0 -124.5 -19.5t-120 -59t-101.5 -94t-70.5 -130.5t-26.5 -162zM442 1567h152v-258h-152v258zM745 1567h152v-258h-152v258z" />
    <glyph glyph-name="divide" unicode="&#xf7;" horiz-adv-x="1241" 
d="M104 449v139h1033v-139h-1033zM545 805v258h151v-258h-151zM545 -27v258h151v-258h-151z" />
    <glyph glyph-name="uacute" unicode="&#xfa;" horiz-adv-x="1245" 
d="M1108 1120v-1120h-135v174h-4q-17 -35 -45 -67.5t-70.5 -64t-106 -50.5t-137.5 -19q-78 0 -145 17t-113.5 45t-75.5 53t-51 53q-98 120 -98 361v618h143v-616q0 -195 80 -295q95 -107 260 -107q147 0 238 91q59 59 88 129.5t29 205.5v592h143zM440 1386l408 224l65 -123
l-405 -219z" />
    <glyph glyph-name="udieresis" unicode="&#xfc;" horiz-adv-x="1245" 
d="M1108 1120v-1120h-135v174h-4q-17 -35 -45 -67.5t-70.5 -64t-106 -50.5t-137.5 -19q-78 0 -145 17t-113.5 45t-75.5 53t-51 53q-98 120 -98 361v618h143v-616q0 -195 80 -295q95 -107 260 -107q147 0 238 91q59 59 88 129.5t29 205.5v592h143zM395 1567h152v-258h-152
v258zM698 1567h152v-258h-152v258z" />
    <glyph glyph-name="yacute" unicode="&#xfd;" horiz-adv-x="1097" 
d="M272 -393l195 430l-436 1083h151l357 -893l381 893h151l-649 -1513h-150zM367 1386l407 224l66 -123l-406 -219z" />
    <glyph glyph-name="Amacron" unicode="&#x100;" horiz-adv-x="1515" 
d="M25 0l647 1516h170l651 -1516h-166l-219 510h-705l-221 -510h-157zM758 1343l-297 -696h588zM412 1841h692v-137h-692v137z" />
    <glyph glyph-name="amacron" unicode="&#x101;" horiz-adv-x="1398" 
d="M1272 1120v-1120h-144v197h-4q-44 -65 -102.5 -112t-119 -70t-112.5 -32.5t-102 -9.5q-129 0 -242 47t-191.5 127t-123.5 188t-45 228q0 112 43 217.5t119.5 187.5t191.5 131.5t248 49.5q51 0 103.5 -9.5t113.5 -32.5t119 -70t100 -113h4v196h144zM229 557
q0 -191 128.5 -323t330.5 -132q120 0 223 59t164.5 164.5t61.5 233.5q0 122 -57.5 227.5t-161.5 169.5t-230 64q-191 0 -325 -128t-134 -335zM352 1507h692v-137h-692v137z" />
    <glyph glyph-name="Abreve" unicode="&#x102;" horiz-adv-x="1515" 
d="M25 0l647 1516h170l651 -1516h-166l-219 510h-705l-221 -510h-157zM758 1343l-297 -696h588zM401 1878h134q24 -33 59 -54t72.5 -28.5t56 -9.5t35.5 -2q157 0 225 94h133q-77 -211 -358 -211q-37 0 -71.5 4t-79.5 17t-81.5 35t-71 62t-53.5 93z" />
    <glyph glyph-name="abreve" unicode="&#x103;" horiz-adv-x="1398" 
d="M1272 1120v-1120h-144v197h-4q-44 -65 -102.5 -112t-119 -70t-112.5 -32.5t-102 -9.5q-129 0 -242 47t-191.5 127t-123.5 188t-45 228q0 112 43 217.5t119.5 187.5t191.5 131.5t248 49.5q51 0 103.5 -9.5t113.5 -32.5t119 -70t100 -113h4v196h144zM229 557
q0 -191 128.5 -323t330.5 -132q120 0 223 59t164.5 164.5t61.5 233.5q0 122 -57.5 227.5t-161.5 169.5t-230 64q-191 0 -325 -128t-134 -335zM342 1544h133q24 -33 59 -54t72.5 -28.5t56 -9.5t35.5 -2q158 0 226 94h133q-77 -211 -359 -211q-48 0 -92.5 7.5t-98 27.5
t-97.5 65t-68 111z" />
    <glyph glyph-name="Aogonek" unicode="&#x104;" horiz-adv-x="1515" 
d="M758 1343l-297 -696h588zM1538 -283v-90q-56 -18 -104 -18q-103 0 -158 55.5t-55 128.5q0 109 106 207l-219 510h-705l-221 -510h-157l647 1516h170l651 -1516q-64 0 -118 -62t-54 -139q0 -51 38.5 -76.5t80.5 -25.5q46 0 98 20z" />
    <glyph glyph-name="aogonek" unicode="&#x105;" horiz-adv-x="1398" 
d="M229 557q0 -191 128.5 -323t330.5 -132q120 0 223 59t164.5 164.5t61.5 233.5q0 122 -57.5 227.5t-161.5 169.5t-230 64q-191 0 -325 -128t-134 -335zM1298 -283v-90q-56 -18 -104 -18q-103 0 -158 55.5t-55 128.5q0 69 39.5 117t107.5 92v195h-4q-44 -65 -102.5 -112
t-119 -70t-112.5 -32.5t-102 -9.5q-129 0 -242 47t-191.5 127t-123.5 188t-45 228q0 112 43 217.5t119.5 187.5t191.5 131.5t248 49.5q51 0 103.5 -9.5t113.5 -32.5t119 -70t100 -113h4v196h144v-1120q-15 0 -47 -16.5t-62 -42.5q-82 -67 -82 -142q0 -51 38.5 -76.5
t80.5 -25.5q46 0 98 20z" />
    <glyph glyph-name="Cacute" unicode="&#x106;" horiz-adv-x="1665" 
d="M1409 397h170q-59 -108 -142.5 -191t-176.5 -133t-189 -75t-190 -25q-157 0 -302.5 60t-253.5 162.5t-172.5 249.5t-64.5 311q0 220 107.5 400.5t288.5 282t395 101.5q111 0 215.5 -29.5t180.5 -75t139.5 -103t101.5 -109.5t57 -97h-170q-47 70 -110 123.5t-120 81.5
t-119.5 45.5t-102 22t-74.5 4.5q-172 0 -320 -91.5t-232.5 -241t-84.5 -316.5q0 -172 91 -321.5t238.5 -235.5t309.5 -86q27 0 52.5 2.5t71.5 10t92.5 27t100 49t109 80.5t104.5 117zM731 1720l408 224l65 -123l-405 -219z" />
    <glyph glyph-name="cacute" unicode="&#x107;" horiz-adv-x="1325" 
d="M1085 330h158q-185 -357 -557 -357q-128 0 -241 47.5t-191.5 127.5t-124 187.5t-45.5 223.5q0 119 47.5 228.5t128 188.5t192 126t234.5 47q78 0 156 -20.5t154.5 -62t142 -115t104.5 -169.5h-158q-43 81 -111 136.5t-139 78.5t-145 23q-83 0 -164.5 -31t-148.5 -87
t-108.5 -144.5t-41.5 -194.5q0 -192 132.5 -326.5t330.5 -134.5q82 0 152 22.5t117 60t76.5 72.5t49.5 73zM438 1386l408 224l65 -123l-405 -219z" />
    <glyph glyph-name="Ccaron" unicode="&#x10c;" horiz-adv-x="1665" 
d="M1409 397h170q-59 -108 -142.5 -191t-176.5 -133t-189 -75t-190 -25q-157 0 -302.5 60t-253.5 162.5t-172.5 249.5t-64.5 311q0 220 107.5 400.5t288.5 282t395 101.5q111 0 215.5 -29.5t180.5 -75t139.5 -103t101.5 -109.5t57 -97h-170q-47 70 -110 123.5t-120 81.5
t-119.5 45.5t-102 22t-74.5 4.5q-172 0 -320 -91.5t-232.5 -241t-84.5 -316.5q0 -172 91 -321.5t238.5 -235.5t309.5 -86q27 0 52.5 2.5t71.5 10t92.5 27t100 49t109 80.5t104.5 117zM541 1898h188l176 -149l180 149h183l-293 -256h-137z" />
    <glyph glyph-name="ccaron" unicode="&#x10d;" horiz-adv-x="1325" 
d="M1085 330h158q-185 -357 -557 -357q-128 0 -241 47.5t-191.5 127.5t-124 187.5t-45.5 223.5q0 119 47.5 228.5t128 188.5t192 126t234.5 47q78 0 156 -20.5t154.5 -62t142 -115t104.5 -169.5h-158q-43 81 -111 136.5t-139 78.5t-145 23q-83 0 -164.5 -31t-148.5 -87
t-108.5 -144.5t-41.5 -194.5q0 -192 132.5 -326.5t330.5 -134.5q82 0 152 22.5t117 60t76.5 72.5t49.5 73zM289 1565h188l176 -150l181 150h182l-293 -256h-137z" />
    <glyph glyph-name="Dcaron" unicode="&#x10e;" horiz-adv-x="1523" 
d="M152 0v1516h442q141 0 271.5 -32.5t221.5 -92.5q95 -59 165.5 -142.5t107.5 -171.5t54.5 -168.5t17.5 -154.5q0 -48 -7.5 -102t-31 -127t-60 -140t-100.5 -137t-146 -123q-91 -60 -221.5 -92.5t-271.5 -32.5h-442zM303 1378v-1241h219q73 0 119 2.5t123 12.5t147 37.5
t131 70.5q238 202 238 500q0 149 -69 282t-189 220q-99 65 -213.5 90.5t-286.5 25.5h-219zM264 1898h189l176 -149l180 149h182l-293 -256h-137z" />
    <glyph glyph-name="dcaron" unicode="&#x10f;" horiz-adv-x="1546" 
d="M1266 1516v-1516h-144v197h-4q-42 -63 -100.5 -109.5t-119 -70t-114 -34t-102.5 -10.5q-129 0 -242 47t-191.5 127t-123.5 188t-45 228q0 112 43 217.5t119.5 187.5t191.5 131.5t248 49.5q70 0 141 -17t155 -69.5t140 -134.5h4v588h144zM223 557q0 -191 128.5 -323
t330.5 -132q120 0 222.5 59t164 164.5t61.5 233.5q0 122 -57.5 227.5t-161 169.5t-229.5 64q-191 0 -325 -128t-134 -335zM1323 1159l162 357h137l-164 -357h-135z" />
    <glyph glyph-name="Dcroat" unicode="&#x110;" horiz-adv-x="1617" 
d="M233 711h-151v137h151v668h435q141 0 260.5 -28.5t204.5 -76t152.5 -112t109.5 -133.5t69.5 -145t38 -141t10.5 -126q0 -50 -8 -107t-32.5 -132t-62 -144t-103.5 -138t-150 -119.5t-208.5 -82t-272.5 -31.5h-443v711zM815 711h-430v-574h219q73 0 119 2.5t123 12.5
t147 37.5t131 70.5q238 202 238 500q0 149 -69 282t-189 220q-99 65 -213.5 90.5t-286.5 25.5h-219v-530h430v-137z" />
    <glyph glyph-name="dcroat" unicode="&#x111;" horiz-adv-x="1402" 
d="M223 557q0 -191 128.5 -323t330.5 -132q120 0 222.5 59t164 164.5t61.5 233.5q0 122 -57.5 227.5t-161 169.5t-229.5 64q-191 0 -325 -128t-134 -335zM1393 1337v-129h-127v-1208h-144v197h-4q-42 -63 -100.5 -109.5t-119 -70t-114 -34t-102.5 -10.5q-129 0 -242 47
t-191.5 127t-123.5 188t-45 228q0 112 43 217.5t119.5 187.5t191.5 131.5t248 49.5q70 0 141 -17t155 -69.5t140 -134.5h4v280h-282v129h282v179h144v-179h127z" />
    <glyph glyph-name="Emacron" unicode="&#x112;" horiz-adv-x="1097" 
d="M143 0v1516h830v-138h-678v-544h655v-138h-655v-559h678v-137h-830zM203 1841h692v-137h-692v137z" />
    <glyph glyph-name="emacron" unicode="&#x113;" horiz-adv-x="1331" 
d="M1245 508h-1020q5 -107 67 -201t160.5 -149.5t206.5 -55.5q147 3 254 78.5t148 186.5h151q-60 -172 -210.5 -283t-339.5 -111q-155 0 -289 76.5t-214.5 212t-80.5 297.5q0 117 45.5 225t122.5 187t185 127.5t228 50.5q89 -1 170 -26t143 -66.5t109 -90.5t78 -104
q97 -154 86 -354zM225 637h875q-16 95 -62 170.5t-108 120.5t-130.5 68.5t-137.5 23.5q-68 0 -137 -23.5t-131.5 -68.5t-108 -120.5t-60.5 -170.5zM319 1507h693v-137h-693v137z" />
    <glyph glyph-name="Edotaccent" unicode="&#x116;" horiz-adv-x="1097" 
d="M143 0v1516h830v-138h-678v-544h655v-138h-655v-559h678v-137h-830zM473 1901h152v-259h-152v259z" />
    <glyph glyph-name="edotaccent" unicode="&#x117;" horiz-adv-x="1331" 
d="M1245 508h-1020q5 -107 67 -201t160.5 -149.5t206.5 -55.5q147 3 254 78.5t148 186.5h151q-60 -172 -210.5 -283t-339.5 -111q-155 0 -289 76.5t-214.5 212t-80.5 297.5q0 117 45.5 225t122.5 187t185 127.5t228 50.5q89 -1 170 -26t143 -66.5t109 -90.5t78 -104
q97 -154 86 -354zM225 637h875q-16 95 -62 170.5t-108 120.5t-130.5 68.5t-137.5 23.5q-68 0 -137 -23.5t-131.5 -68.5t-108 -120.5t-60.5 -170.5zM590 1567h151v-258h-151v258z" />
    <glyph glyph-name="Eogonek" unicode="&#x118;" horiz-adv-x="1097" 
d="M973 -283v-90q-56 -18 -105 -18q-103 0 -158 55.5t-55 128.5q0 59 40 113t102 94h-654v1516h830v-138h-678v-544h655v-138h-655v-559h678v-137q-44 0 -101 -33q-44 -27 -80 -74t-36 -94q0 -51 38 -76.5t80 -25.5q47 0 99 20z" />
    <glyph glyph-name="eogonek" unicode="&#x119;" horiz-adv-x="1331" 
d="M225 637h875q-16 95 -62 170.5t-108 120.5t-130.5 68.5t-137.5 23.5q-68 0 -137 -23.5t-131.5 -68.5t-108 -120.5t-60.5 -170.5zM1245 508h-1020q5 -107 67 -201t160.5 -149.5t206.5 -55.5q147 3 254 78.5t148 186.5h151q-48 -136 -155.5 -236.5t-249.5 -136.5
q-78 -59 -113 -103.5t-35 -91.5q0 -51 38.5 -76.5t80.5 -25.5q47 0 99 20v-90q-56 -18 -105 -18q-103 0 -158 55.5t-55 128.5q0 107 109 180h-6q-155 0 -289 76.5t-214.5 212t-80.5 297.5q0 117 45.5 225t122.5 187t185 127.5t228 50.5q89 -1 170 -26t143 -66.5t109 -90.5
t78 -104q97 -154 86 -354z" />
    <glyph glyph-name="Ecaron" unicode="&#x11a;" horiz-adv-x="1097" 
d="M143 0v1516h830v-138h-678v-544h655v-138h-655v-559h678v-137h-830zM174 1898h188l177 -149l180 149h182l-293 -256h-137z" />
    <glyph glyph-name="ecaron" unicode="&#x11b;" horiz-adv-x="1331" 
d="M1245 508h-1020q5 -107 67 -201t160.5 -149.5t206.5 -55.5q147 3 254 78.5t148 186.5h151q-60 -172 -210.5 -283t-339.5 -111q-155 0 -289 76.5t-214.5 212t-80.5 297.5q0 117 45.5 225t122.5 187t185 127.5t228 50.5q89 -1 170 -26t143 -66.5t109 -90.5t78 -104
q97 -154 86 -354zM225 637h875q-16 95 -62 170.5t-108 120.5t-130.5 68.5t-137.5 23.5q-68 0 -137 -23.5t-131.5 -68.5t-108 -120.5t-60.5 -170.5zM291 1565h188l176 -150l181 150h182l-293 -256h-137z" />
    <glyph glyph-name="Gcommaaccent" unicode="&#x122;" horiz-adv-x="1785" 
d="M668 696h1028q-13 -164 -87.5 -302.5t-186.5 -229t-249 -141t-278 -50.5q-166 0 -317.5 64.5t-259.5 171t-172 251t-64 298.5q0 147 59.5 288t163 251t258 177.5t330.5 67.5q115 0 222.5 -30t187 -77t144.5 -105.5t104.5 -113.5t58.5 -104h-176q-70 122 -215 207.5
t-324 85.5q-140 0 -264.5 -54t-211 -143.5t-136.5 -207.5t-50 -244t50.5 -243.5t137 -206t212.5 -142t268 -53.5q116 0 223 40t184.5 105t131 143.5t73.5 159.5h-845v137zM684 -455l162 344h137l-164 -344h-135z" />
    <glyph glyph-name="gcommaaccent" unicode="&#x123;" horiz-adv-x="1378" 
d="M541 1253l161 357h138l-164 -357h-135zM1241 1120v-944q0 -62 -2 -99t-10.5 -96.5t-31 -112t-58.5 -101.5q-40 -56 -97 -97t-107 -61.5t-106 -32t-84.5 -14t-50.5 -2.5q-55 0 -111.5 8.5t-129 36t-133 70.5t-115.5 119.5t-84 176.5h151q13 -33 31.5 -65t54.5 -73.5
t79.5 -71.5t110.5 -51t144 -21q59 0 114.5 13.5t109.5 45t93.5 78t64 119t24.5 161.5v99h-4q-60 -114 -179.5 -173t-252.5 -59q-111 0 -216 42t-187.5 116t-132.5 185t-50 239q0 129 50 242t132.5 189t187.5 119.5t216 43.5q46 0 94 -8.5t110 -30.5t122.5 -71t105.5 -119h4
v200h143zM219 559q0 -121 57 -226t159.5 -168t226.5 -63q86 0 160 29.5t125 77t88 107.5t54 122.5t17 120.5q0 187 -129 324t-315 137q-124 0 -226.5 -64t-159.5 -169.5t-57 -227.5z" />
    <glyph glyph-name="Imacron" unicode="&#x12a;" horiz-adv-x="462" 
d="M156 0v1516h151v-1516h-151zM-63 1841h587v-137h-587v137z" />
    <glyph glyph-name="imacron" unicode="&#x12b;" horiz-adv-x="409" 
d="M133 0v1120h143v-1120h-143zM-90 1507h588v-137h-588v137z" />
    <glyph glyph-name="Iogonek" unicode="&#x12e;" horiz-adv-x="462" 
d="M360 -283v-90q-56 -18 -104 -18q-103 0 -158 55.5t-55 128.5q0 44 19.5 85.5t37 62t49.5 52.5l7 7v1516h151v-1516q-43 0 -100 -63q-64 -68 -64 -138q0 -51 38.5 -76.5t80.5 -25.5q46 0 98 20z" />
    <glyph glyph-name="iogonek" unicode="&#x12f;" horiz-adv-x="409" 
d="M133 1257v259h143v-259h-143zM340 -283v-90q-56 -18 -104 -18q-104 0 -158.5 57t-54.5 139q0 117 116 195h-6v1120h143v-1120q-46 0 -96 -57q-57 -60 -57 -131q0 -59 38 -87t81 -28q46 0 98 20z" />
    <glyph glyph-name="Kcommaaccent" unicode="&#x136;" horiz-adv-x="1210" 
d="M166 0v1516h151v-871h5l694 871h194l-600 -740l600 -776h-190l-506 657l-197 -241v-416h-151zM397 -414l162 344h137l-164 -344h-135z" />
    <glyph glyph-name="kcommaaccent" unicode="&#x137;" horiz-adv-x="1028" 
d="M143 0v1516h144v-1080h4l522 684h184l-442 -565l465 -555h-184l-369 442l-180 -229v-213h-144zM305 -414l162 344h137l-164 -344h-135z" />
    <glyph glyph-name="Lacute" unicode="&#x139;" horiz-adv-x="946" 
d="M168 0v1516h151v-1379h627v-137h-778zM250 1720l407 224l66 -123l-406 -219z" />
    <glyph glyph-name="lacute" unicode="&#x13a;" horiz-adv-x="409" 
d="M133 0v1516h143v-1516h-143zM41 1720l408 224l65 -123l-405 -219z" />
    <glyph glyph-name="Lcommaaccent" unicode="&#x13b;" horiz-adv-x="946" 
d="M168 0v1516h151v-1379h627v-137h-778zM326 -455l161 344h138l-164 -344h-135z" />
    <glyph glyph-name="lcommaaccent" unicode="&#x13c;" horiz-adv-x="409" 
d="M133 0v1516h143v-1516h-143zM-4 -455l162 344h137l-164 -344h-135z" />
    <glyph glyph-name="Lcaron" unicode="&#x13d;" horiz-adv-x="946" 
d="M168 0v1516h151v-1379h627v-137h-778zM633 1159l162 357h137l-164 -357h-135z" />
    <glyph glyph-name="lcaron" unicode="&#x13e;" horiz-adv-x="532" 
d="M133 0v1516h143v-1516h-143zM334 1159l162 357h137l-164 -357h-135z" />
    <glyph glyph-name="Lslash" unicode="&#x141;" horiz-adv-x="1058" 
d="M121 526v158l160 115v717h151v-607l313 228v-158l-313 -227v-615h627v-137h-778v641z" />
    <glyph glyph-name="lslash" unicode="&#x142;" horiz-adv-x="614" 
d="M231 686l-143 -106v145l143 104v687h144v-582l155 113l-2 -144l-153 -112v-791h-144v686z" />
    <glyph glyph-name="Nacute" unicode="&#x143;" horiz-adv-x="1515" 
d="M154 0v1516h204l846 -1258h4v1258h152v-1516h-152l-899 1333h-4v-1333h-151zM575 1720l408 224l66 -123l-406 -219z" />
    <glyph glyph-name="nacute" unicode="&#x144;" horiz-adv-x="1249" 
d="M133 0v1120h143v-143h5q42 66 129.5 119t214.5 53q217 0 354 -137q139 -136 139 -396v-616h-143v616q0 205 -107 308q-53 52 -119 74t-124 22t-124.5 -22t-119.5 -74q-49 -47 -77.5 -125.5t-27.5 -182.5v-616h-143zM442 1386l408 224l65 -123l-405 -219z" />
    <glyph glyph-name="Ncommaaccent" unicode="&#x145;" horiz-adv-x="1515" 
d="M154 0v1516h204l846 -1258h4v1258h152v-1516h-152l-899 1333h-4v-1333h-151zM549 -414l162 344h137l-164 -344h-135z" />
    <glyph glyph-name="ncommaaccent" unicode="&#x146;" horiz-adv-x="1249" 
d="M133 0v1120h143v-143h5q42 66 129.5 119t214.5 53q217 0 354 -137q139 -136 139 -396v-616h-143v616q0 205 -107 308q-53 52 -119 74t-124 22t-124.5 -22t-119.5 -74q-49 -47 -77.5 -125.5t-27.5 -182.5v-616h-143zM416 -414l162 344h137l-164 -344h-135z" />
    <glyph glyph-name="Ncaron" unicode="&#x147;" horiz-adv-x="1515" 
d="M154 0v1516h204l846 -1258h4v1258h152v-1516h-152l-899 1333h-4v-1333h-151zM383 1898h188l177 -149l180 149h182l-293 -256h-137z" />
    <glyph glyph-name="ncaron" unicode="&#x148;" horiz-adv-x="1249" 
d="M133 0v1120h143v-143h5q42 66 129.5 119t214.5 53q217 0 354 -137q139 -136 139 -396v-616h-143v616q0 205 -107 308q-53 52 -119 74t-124 22t-124.5 -22t-119.5 -74q-49 -47 -77.5 -125.5t-27.5 -182.5v-616h-143zM250 1565h188l176 -150l181 150h182l-293 -256h-137z
" />
    <glyph glyph-name="Omacron" unicode="&#x14c;" horiz-adv-x="1779" 
d="M88 750q0 139 44.5 265t122 220.5t178.5 164.5t218 106t238 36q158 0 305 -60.5t256.5 -163.5t175.5 -250t66 -310t-66 -310t-176 -250.5t-257 -164t-304 -60.5q-127 0 -248 39.5t-220 112t-174.5 167.5t-117 214t-41.5 244zM240 750q0 -127 52.5 -245.5t140 -204.5
t207.5 -137.5t249 -51.5q173 0 322.5 85.5t239 234.5t89.5 325q0 174 -87.5 323.5t-237.5 237.5t-326 88q-170 0 -318.5 -84t-239.5 -236t-91 -335zM543 1841h692v-137h-692v137z" />
    <glyph glyph-name="omacron" unicode="&#x14d;" horiz-adv-x="1341" 
d="M86 553q0 129 50 242t131.5 189.5t187 120.5t215.5 44q162 0 298 -83t212.5 -218t76.5 -287t-75.5 -286.5t-212 -218t-299.5 -83.5q-120 0 -229 48.5t-186.5 128t-123 185.5t-45.5 218zM229 555q0 -126 62.5 -231.5t164 -163.5t216.5 -58q82 0 160.5 32t141.5 90
t101.5 147.5t38.5 195.5t-41.5 194.5t-107.5 143.5t-142.5 85t-150.5 30q-62 0 -124.5 -19.5t-120 -59t-101.5 -94t-70.5 -130.5t-26.5 -162zM324 1507h692v-137h-692v137z" />
    <glyph glyph-name="Ohungarumlaut" unicode="&#x150;" horiz-adv-x="1779" 
d="M88 750q0 139 44.5 265t122 220.5t178.5 164.5t218 106t238 36q158 0 305 -60.5t256.5 -163.5t175.5 -250t66 -310t-66 -310t-176 -250.5t-257 -164t-304 -60.5q-127 0 -248 39.5t-220 112t-174.5 167.5t-117 214t-41.5 244zM240 750q0 -127 52.5 -245.5t140 -204.5
t207.5 -137.5t249 -51.5q173 0 322.5 85.5t239 234.5t89.5 325q0 174 -87.5 323.5t-237.5 237.5t-326 88q-170 0 -318.5 -84t-239.5 -236t-91 -335zM672 1667l329 277l84 -95l-335 -276zM1030 1667l332 277l82 -95l-336 -276z" />
    <glyph glyph-name="ohungarumlaut" unicode="&#x151;" horiz-adv-x="1341" 
d="M86 553q0 129 50 242t131.5 189.5t187 120.5t215.5 44q162 0 298 -83t212.5 -218t76.5 -287t-75.5 -286.5t-212 -218t-299.5 -83.5q-120 0 -229 48.5t-186.5 128t-123 185.5t-45.5 218zM229 555q0 -126 62.5 -231.5t164 -163.5t216.5 -58q82 0 160.5 32t141.5 90
t101.5 147.5t38.5 195.5t-41.5 194.5t-107.5 143.5t-142.5 85t-150.5 30q-62 0 -124.5 -19.5t-120 -59t-101.5 -94t-70.5 -130.5t-26.5 -162zM412 1333l329 277l84 -94l-336 -277zM770 1333l332 277l82 -94l-336 -277z" />
    <glyph glyph-name="Racute" unicode="&#x154;" horiz-adv-x="1243" 
d="M143 0v1516h385q250 0 373 -58q127 -60 198.5 -175.5t71.5 -256.5q0 -83 -29.5 -162t-85 -143.5t-142.5 -106.5t-193 -49l428 -565h-191l-514 686q150 0 213 4t113 19q119 34 184.5 124t65.5 197q0 90 -46.5 172.5t-119.5 118.5q-65 34 -129.5 45.5t-165.5 11.5h-264
v-1378h-152zM397 1720l408 224l65 -123l-405 -219z" />
    <glyph glyph-name="racute" unicode="&#x155;" horiz-adv-x="616" 
d="M133 0v1120h143v-162h5q24 57 59.5 95t80 57t83.5 27t92 12v-152q-161 -13 -242 -110q-78 -97 -78 -232v-655h-143zM207 1386l407 224l66 -123l-406 -219z" />
    <glyph glyph-name="Rcommaaccent" unicode="&#x156;" horiz-adv-x="1243" 
d="M143 0v1516h385q250 0 373 -58q127 -60 198.5 -175.5t71.5 -256.5q0 -83 -29.5 -162t-85 -143.5t-142.5 -106.5t-193 -49l428 -565h-191l-514 686q150 0 213 4t113 19q119 34 184.5 124t65.5 197q0 90 -46.5 172.5t-119.5 118.5q-65 34 -129.5 45.5t-165.5 11.5h-264
v-1378h-152zM414 -414l161 344h138l-164 -344h-135z" />
    <glyph glyph-name="rcommaaccent" unicode="&#x157;" horiz-adv-x="616" 
d="M133 0v1120h143v-162h5q24 57 59.5 95t80 57t83.5 27t92 12v-152q-161 -13 -242 -110q-78 -97 -78 -232v-655h-143zM16 -455l162 344h137l-163 -344h-136z" />
    <glyph glyph-name="Rcaron" unicode="&#x158;" horiz-adv-x="1243" 
d="M143 0v1516h385q250 0 373 -58q127 -60 198.5 -175.5t71.5 -256.5q0 -83 -29.5 -162t-85 -143.5t-142.5 -106.5t-193 -49l428 -565h-191l-514 686q150 0 213 4t113 19q119 34 184.5 124t65.5 197q0 90 -46.5 172.5t-119.5 118.5q-65 34 -129.5 45.5t-165.5 11.5h-264
v-1378h-152zM248 1898h188l176 -149l181 149h182l-293 -256h-137z" />
    <glyph glyph-name="rcaron" unicode="&#x159;" horiz-adv-x="616" 
d="M133 0v1120h143v-162h5q24 57 59.5 95t80 57t83.5 27t92 12v-152q-161 -13 -242 -110q-78 -97 -78 -232v-655h-143zM-6 1565h188l176 -150l181 150h182l-293 -256h-137z" />
    <glyph glyph-name="Sacute" unicode="&#x15a;" horiz-adv-x="1019" 
d="M45 424h152q6 -143 91 -228t224 -85q124 0 214.5 85.5t90.5 215.5q0 78 -31 136.5t-94 96t-97.5 51.5t-100.5 34q-10 4 -15 5q-125 38 -173 60q-220 102 -220 340q0 176 122.5 291.5t303.5 115.5q182 0 301 -121t119 -291h-152q0 114 -80 194.5t-188 80.5
q-124 0 -199 -79.5t-75 -184.5q0 -38 10.5 -70t24.5 -55.5t43.5 -45t52.5 -34.5t68 -29.5t72 -24.5t82 -24q5 -1 7 -2q76 -20 137.5 -54t99.5 -68.5t65.5 -78.5t40 -76.5t20 -72t8 -54.5t0.5 -34q0 -116 -57.5 -218t-163.5 -164.5t-236 -62.5q-62 0 -124 14.5t-124 48.5
t-109 84.5t-77.5 129t-32.5 174.5zM287 1720l407 224l66 -123l-406 -219z" />
    <glyph glyph-name="sacute" unicode="&#x15b;" horiz-adv-x="794" 
d="M49 332h144q1 -60 18 -105t39 -68t52 -37t50.5 -17t40.5 -3q100 0 154.5 54.5t54.5 146.5q0 28 -6.5 52.5t-16 42.5t-26.5 34.5t-30.5 26.5t-36.5 21.5t-36.5 17.5t-37.5 15t-33 13q-34 12 -53.5 19t-55 23t-57.5 31t-49.5 40t-43.5 52t-27 65t-11 82q0 81 35.5 150.5
t110 115t173.5 45.5q128 0 217.5 -87.5t88.5 -217.5h-144q-7 92 -58 134t-110 42q-80 0 -125 -52t-45 -116q0 -34 14 -62.5t32 -46.5t50 -34.5t51.5 -24t53.5 -18.5q41 -13 70 -25t70 -32.5t69.5 -46t55 -60t40.5 -81t14 -102.5q2 -152 -89 -249t-263 -97q-61 0 -120.5 21.5
t-111.5 63t-83 113t-29 161.5zM174 1386l408 224l65 -123l-405 -219z" />
    <glyph glyph-name="Scaron" unicode="&#x160;" horiz-adv-x="1019" 
d="M45 424h152q6 -143 91 -228t224 -85q124 0 214.5 85.5t90.5 215.5q0 78 -31 136.5t-94 96t-97.5 51.5t-100.5 34q-10 4 -15 5q-125 38 -173 60q-220 102 -220 340q0 176 122.5 291.5t303.5 115.5q182 0 301 -121t119 -291h-152q0 114 -80 194.5t-188 80.5
q-124 0 -199 -79.5t-75 -184.5q0 -38 10.5 -70t24.5 -55.5t43.5 -45t52.5 -34.5t68 -29.5t72 -24.5t82 -24q5 -1 7 -2q76 -20 137.5 -54t99.5 -68.5t65.5 -78.5t40 -76.5t20 -72t8 -54.5t0.5 -34q0 -116 -57.5 -218t-163.5 -164.5t-236 -62.5q-62 0 -124 14.5t-124 48.5
t-109 84.5t-77.5 129t-32.5 174.5zM135 1898h189l176 -149l180 149h182l-293 -256h-137z" />
    <glyph glyph-name="scaron" unicode="&#x161;" horiz-adv-x="794" 
d="M49 332h144q1 -60 18 -105t39 -68t52 -37t50.5 -17t40.5 -3q100 0 154.5 54.5t54.5 146.5q0 28 -6.5 52.5t-16 42.5t-26.5 34.5t-30.5 26.5t-36.5 21.5t-36.5 17.5t-37.5 15t-33 13q-34 12 -53.5 19t-55 23t-57.5 31t-49.5 40t-43.5 52t-27 65t-11 82q0 81 35.5 150.5
t110 115t173.5 45.5q128 0 217.5 -87.5t88.5 -217.5h-144q-7 92 -58 134t-110 42q-80 0 -125 -52t-45 -116q0 -34 14 -62.5t32 -46.5t50 -34.5t51.5 -24t53.5 -18.5q41 -13 70 -25t70 -32.5t69.5 -46t55 -60t40.5 -81t14 -102.5q2 -152 -89 -249t-263 -97q-61 0 -120.5 21.5
t-111.5 63t-83 113t-29 161.5zM23 1565h188l176 -150l180 150h183l-293 -256h-138z" />
    <glyph glyph-name="Tcommaaccent" unicode="&#x162;" horiz-adv-x="872" 
d="M360 0v1378h-348v138h846v-138h-346v-1378h-152zM227 -455l162 344h137l-164 -344h-135z" />
    <glyph glyph-name="Tcommaaccent" unicode="&#x21a;" horiz-adv-x="872" 
d="M360 0v1378h-348v138h846v-138h-346v-1378h-152zM227 -455l162 344h137l-164 -344h-135z" />
    <glyph glyph-name="tcommaaccent" unicode="&#x163;" horiz-adv-x="694" 
d="M264 0v991h-235v129h235v396h144v-396h268v-129h-268v-991h-144zM139 -455l162 344h137l-164 -344h-135z" />
    <glyph glyph-name="tcommaaccent" unicode="&#x21b;" horiz-adv-x="694" 
d="M264 0v991h-235v129h235v396h144v-396h268v-129h-268v-991h-144zM139 -455l162 344h137l-164 -344h-135z" />
    <glyph glyph-name="Tcaron" unicode="&#x164;" horiz-adv-x="872" 
d="M360 0v1378h-348v138h846v-138h-346v-1378h-152zM61 1898h189l176 -149l180 149h182l-292 -256h-138z" />
    <glyph glyph-name="tcaron" unicode="&#x165;" horiz-adv-x="735" 
d="M264 0v991h-235v129h235v396h144v-396h268v-129h-268v-991h-144zM508 1241l162 356h137l-164 -356h-135z" />
    <glyph glyph-name="Umacron" unicode="&#x16a;" horiz-adv-x="1341" 
d="M154 1516h151v-945q0 -182 51 -274q101 -186 314 -186q212 0 313 186q51 92 51 274v945h152v-945q0 -190 -58 -315q-37 -81 -94.5 -139.5t-122 -88t-123.5 -42.5t-118 -13t-118 13t-124 42.5t-122.5 88t-94.5 139.5q-57 123 -57 315v945zM324 1841h692v-137h-692v137z
" />
    <glyph glyph-name="umacron" unicode="&#x16b;" horiz-adv-x="1245" 
d="M1108 1120v-1120h-135v174h-4q-17 -35 -45 -67.5t-70.5 -64t-106 -50.5t-137.5 -19q-78 0 -145 17t-113.5 45t-75.5 53t-51 53q-98 120 -98 361v618h143v-616q0 -195 80 -295q95 -107 260 -107q147 0 238 91q59 59 88 129.5t29 205.5v592h143zM276 1507h693v-137h-693
v137z" />
    <glyph glyph-name="Uring" unicode="&#x16e;" horiz-adv-x="1341" 
d="M154 1516h151v-945q0 -182 51 -274q101 -186 314 -186q212 0 313 186q51 92 51 274v945h152v-945q0 -190 -58 -315q-37 -81 -94.5 -139.5t-122 -88t-123.5 -42.5t-118 -13t-118 13t-124 42.5t-122.5 88t-94.5 139.5q-57 123 -57 315v945zM459 1743q0 88 62.5 150.5
t148.5 62.5q89 0 151 -62t62 -151q0 -88 -62.5 -149.5t-150.5 -61.5q-87 0 -149 62t-62 149zM565 1743q0 -43 31 -74t74 -31q44 0 75 31t31 74q0 44 -31 75t-75 31q-42 0 -73.5 -31t-31.5 -75z" />
    <glyph glyph-name="uring" unicode="&#x16f;" horiz-adv-x="1245" 
d="M1108 1120v-1120h-135v174h-4q-17 -35 -45 -67.5t-70.5 -64t-106 -50.5t-137.5 -19q-78 0 -145 17t-113.5 45t-75.5 53t-51 53q-98 120 -98 361v618h143v-616q0 -195 80 -295q95 -107 260 -107q147 0 238 91q59 59 88 129.5t29 205.5v592h143zM410 1440q0 88 62.5 150.5
t148.5 62.5q89 0 151 -62t62 -151q0 -88 -62.5 -149.5t-150.5 -61.5q-87 0 -149 62t-62 149zM516 1440q0 -43 31 -74t74 -31q44 0 75 31t31 74q0 44 -31 75t-75 31q-42 0 -73.5 -31t-31.5 -75z" />
    <glyph glyph-name="Uhungarumlaut" unicode="&#x170;" horiz-adv-x="1341" 
d="M154 1516h151v-945q0 -182 51 -274q101 -186 314 -186q212 0 313 186q51 92 51 274v945h152v-945q0 -190 -58 -315q-37 -81 -94.5 -139.5t-122 -88t-123.5 -42.5t-118 -13t-118 13t-124 42.5t-122.5 88t-94.5 139.5q-57 123 -57 315v945zM371 1667l329 277l84 -95
l-335 -276zM729 1667l332 277l82 -95l-336 -276z" />
    <glyph glyph-name="uhungarumlaut" unicode="&#x171;" horiz-adv-x="1245" 
d="M1108 1120v-1120h-135v174h-4q-17 -35 -45 -67.5t-70.5 -64t-106 -50.5t-137.5 -19q-78 0 -145 17t-113.5 45t-75.5 53t-51 53q-98 120 -98 361v618h143v-616q0 -195 80 -295q95 -107 260 -107q147 0 238 91q59 59 88 129.5t29 205.5v592h143zM322 1333l329 277l84 -94
l-336 -277zM680 1333l332 277l82 -94l-336 -277z" />
    <glyph glyph-name="Uogonek" unicode="&#x172;" horiz-adv-x="1341" 
d="M154 1516h151v-945q0 -182 51 -274q101 -186 314 -186q212 0 313 186q51 92 51 274v945h152v-945q0 -190 -58 -315q-53 -114 -140 -178.5t-187 -87.5q-74 -59 -108 -102.5t-34 -88.5q0 -51 38.5 -76.5t80.5 -25.5q47 0 99 20v-90q-56 -18 -105 -18q-103 0 -158 55.5
t-55 128.5q0 107 109 180q-58 0 -117 13t-123.5 42.5t-122 88t-94.5 139.5q-57 123 -57 315v945z" />
    <glyph glyph-name="uogonek" unicode="&#x173;" horiz-adv-x="1245" 
d="M1143 -283v-90q-56 -18 -105 -18q-103 0 -158 55.5t-55 128.5q0 66 37.5 113t110.5 100v168h-4q-17 -35 -45 -67.5t-70.5 -64t-106 -50.5t-137.5 -19q-78 0 -145 17t-113.5 45t-75.5 53t-51 53q-98 120 -98 361v618h143v-616q0 -195 80 -295q95 -107 260 -107
q147 0 238 91q59 59 88 129.5t29 205.5v592h143v-1120q-11 0 -41.5 -17t-58.5 -42q-82 -67 -82 -142q0 -51 38 -76.5t80 -25.5q47 0 99 20z" />
    <glyph glyph-name="Zacute" unicode="&#x179;" horiz-adv-x="983" 
d="M25 0v137l745 1241h-723v138h893v-138l-743 -1241h766v-137h-938zM268 1720l408 224l65 -123l-405 -219z" />
    <glyph glyph-name="zacute" unicode="&#x17a;" horiz-adv-x="870" 
d="M20 0v125l621 866h-600v129h772v-129l-614 -862h651v-129h-830zM211 1386l407 224l66 -123l-405 -219z" />
    <glyph glyph-name="Zdotaccent" unicode="&#x17b;" horiz-adv-x="983" 
d="M25 0v137l745 1241h-723v138h893v-138l-743 -1241h766v-137h-938zM416 1901h151v-259h-151v259z" />
    <glyph glyph-name="zdotaccent" unicode="&#x17c;" horiz-adv-x="870" 
d="M20 0v125l621 866h-600v129h772v-129l-614 -862h651v-129h-830zM360 1567h152v-258h-152v258z" />
    <glyph glyph-name="Zcaron" unicode="&#x17d;" horiz-adv-x="983" 
d="M25 0v137l745 1241h-723v138h893v-138l-743 -1241h766v-137h-938zM117 1898h188l176 -149l181 149h182l-293 -256h-137z" />
    <glyph glyph-name="zcaron" unicode="&#x17e;" horiz-adv-x="870" 
d="M20 0v125l621 866h-600v129h772v-129l-614 -862h651v-129h-830zM61 1565h189l176 -150l180 150h182l-292 -256h-138z" />
    <glyph glyph-name="Scommaaccent" unicode="&#x218;" horiz-adv-x="1019" 
d="M45 424h152q6 -143 91 -228t224 -85q124 0 214.5 85.5t90.5 215.5q0 78 -31 136.5t-94 96t-97.5 51.5t-100.5 34q-10 4 -15 5q-125 38 -173 60q-220 102 -220 340q0 176 122.5 291.5t303.5 115.5q182 0 301 -121t119 -291h-152q0 114 -80 194.5t-188 80.5
q-124 0 -199 -79.5t-75 -184.5q0 -38 10.5 -70t24.5 -55.5t43.5 -45t52.5 -34.5t68 -29.5t72 -24.5t82 -24q5 -1 7 -2q76 -20 137.5 -54t99.5 -68.5t65.5 -78.5t40 -76.5t20 -72t8 -54.5t0.5 -34q0 -116 -57.5 -218t-163.5 -164.5t-236 -62.5q-62 0 -124 14.5t-124 48.5
t-109 84.5t-77.5 129t-32.5 174.5zM301 -455l162 344h137l-164 -344h-135z" />
    <glyph glyph-name="scommaaccent" unicode="&#x219;" horiz-adv-x="794" 
d="M49 332h144q1 -60 18 -105t39 -68t52 -37t50.5 -17t40.5 -3q100 0 154.5 54.5t54.5 146.5q0 28 -6.5 52.5t-16 42.5t-26.5 34.5t-30.5 26.5t-36.5 21.5t-36.5 17.5t-37.5 15t-33 13q-34 12 -53.5 19t-55 23t-57.5 31t-49.5 40t-43.5 52t-27 65t-11 82q0 81 35.5 150.5
t110 115t173.5 45.5q128 0 217.5 -87.5t88.5 -217.5h-144q-7 92 -58 134t-110 42q-80 0 -125 -52t-45 -116q0 -34 14 -62.5t32 -46.5t50 -34.5t51.5 -24t53.5 -18.5q41 -13 70 -25t70 -32.5t69.5 -46t55 -60t40.5 -81t14 -102.5q2 -152 -89 -249t-263 -97q-61 0 -120.5 21.5
t-111.5 63t-83 113t-29 161.5zM188 -455l162 344h137l-163 -344h-136z" />
    <glyph glyph-name="caron" unicode="&#x2c7;" horiz-adv-x="1028" 
d="M139 1565h189l176 -150l180 150h182l-293 -256h-137z" />
    <glyph glyph-name="breve" unicode="&#x2d8;" horiz-adv-x="927" 
d="M106 1544h134q24 -33 59 -54t72.5 -28.5t56 -9.5t35.5 -2q157 0 225 94h133q-77 -211 -358 -211q-37 0 -71.5 4t-79.5 17t-81.5 35t-71 62t-53.5 93z" />
    <glyph glyph-name="dotaccent" unicode="&#x2d9;" horiz-adv-x="454" 
d="M152 1567h151v-258h-151v258z" />
    <glyph glyph-name="ogonek" unicode="&#x2db;" horiz-adv-x="618" 
d="M297 0h106q-81 -62 -117 -107t-36 -94q0 -51 38.5 -76.5t80.5 -25.5q46 0 98 20v-90q-56 -18 -105 -18q-103 0 -157.5 55t-54.5 129q0 32 10 61t24.5 49t35 39t36 30t33.5 23q6 3 8 5z" />
    <glyph glyph-name="hungarumlaut" unicode="&#x2dd;" horiz-adv-x="1130" 
d="M223 1333l330 277l84 -94l-336 -277zM582 1333l331 277l82 -94l-336 -277z" />
    <glyph glyph-name="Delta" unicode="&#x394;" horiz-adv-x="1253" 
d="M668 1409l577 -1409h-1233zM594 1059l-447 -959h844z" />
    <glyph glyph-name="Delta" unicode="&#x2206;" horiz-adv-x="1253" 
d="M668 1409l577 -1409h-1233zM594 1059l-447 -959h844z" />
    <glyph glyph-name="endash" unicode="&#x2013;" horiz-adv-x="1024" 
d="M72 645h880v-137h-880v137z" />
    <glyph glyph-name="emdash" unicode="&#x2014;" horiz-adv-x="2048" 
d="M72 645h1904v-137h-1904v137z" />
    <glyph glyph-name="quoteleft" unicode="&#x2018;" horiz-adv-x="718" 
d="M526 1118h-151l-180 398h151z" />
    <glyph glyph-name="quoteright" unicode="&#x2019;" horiz-adv-x="718" 
d="M344 1118h-151l180 398h151z" />
    <glyph glyph-name="quotesinglbase" unicode="&#x201a;" horiz-adv-x="724" 
d="M334 -139h-152l180 397h152z" />
    <glyph glyph-name="quotedblleft" unicode="&#x201c;" horiz-adv-x="1028" 
d="M831 1118h-151l-178 398h149zM530 1118h-151l-180 398h151z" />
    <glyph glyph-name="quotedblright" unicode="&#x201d;" horiz-adv-x="991" 
d="M348 1118h-151l180 398h149zM649 1118h-151l180 398h151z" />
    <glyph glyph-name="quotedblbase" unicode="&#x201e;" horiz-adv-x="1028" 
d="M182 -139l180 397h152l-180 -397h-152zM485 -139l181 397h151l-180 -397h-152z" />
    <glyph glyph-name="dagger" unicode="&#x2020;" horiz-adv-x="1132" 
d="M641 1516v-412h369v-137h-369v-1239h-152v1239h-368v137h368v412h152z" />
    <glyph glyph-name="daggerdbl" unicode="&#x2021;" horiz-adv-x="1132" 
d="M641 1516v-412h369v-137h-369v-691h369v-137h-369v-411h-152v411h-368v137h368v691h-368v137h368v412h152z" />
    <glyph glyph-name="bullet" unicode="&#x2022;" horiz-adv-x="1241" 
d="M623 1090q127 0 218 -93.5t91 -224.5q0 -132 -91.5 -224.5t-219.5 -92.5q-130 0 -222 93.5t-92 223.5q0 129 91 223.5t225 94.5z" />
    <glyph glyph-name="ellipsis" unicode="&#x2026;" horiz-adv-x="2048" 
d="M266 0v258h152v-258h-152zM948 0v258h152v-258h-152zM1630 0v258h152v-258h-152z" />
    <glyph glyph-name="perthousand" unicode="&#x2030;" horiz-adv-x="2404" 
d="M932 340q0 -105 72 -178.5t176 -73.5t175.5 73.5t71.5 178.5t-71.5 178.5t-175.5 73.5t-176 -73.5t-72 -178.5zM809 340q0 152 109 259.5t262 107.5t261.5 -107.5t108.5 -259.5t-108.5 -259.5t-261.5 -107.5t-262 107.5t-109 259.5zM1610 340q0 152 108.5 259.5
t261.5 107.5t262 -107.5t109 -259.5t-109 -259.5t-262 -107.5t-261.5 107.5t-108.5 259.5zM1733 340q0 -105 71.5 -178.5t175.5 -73.5t176 73.5t72 178.5t-72 178.5t-176 73.5t-175.5 -73.5t-71.5 -178.5zM51 1171q0 152 109 259.5t262 107.5t262 -107.5t109 -259.5
t-109 -259t-262 -107t-262 107t-109 259zM174 1171q0 -105 72 -178t176 -73t176 73t72 178t-72 178.5t-176 73.5t-176 -73.5t-72 -178.5zM1298 1516l-868 -1516h-139l868 1516h139z" />
    <glyph glyph-name="guilsinglleft" unicode="&#x2039;" horiz-adv-x="514" 
d="M313 166l-231 412l231 407l121 -63l-192 -344l192 -345z" />
    <glyph glyph-name="guilsinglright" unicode="&#x203a;" horiz-adv-x="514" 
d="M199 166l-119 67l192 345l-192 344l119 63l233 -407z" />
    <glyph glyph-name="Euro" unicode="&#x20ac;" 
d="M1044 1438v-164q-112 121 -313 121q-170 0 -265.5 -117t-115.5 -307h604l-41 -125h-579q-2 -23 -2 -82q0 -18 1 -47t1 -39h524l-41 -127h-467q25 -207 123 -318.5t260 -111.5q190 0 311 121v-166q-42 -41 -129 -71t-200 -30q-216 0 -346.5 143.5t-165.5 432.5h-148
l41 127h94q-4 40 -4 86q0 36 4 82h-135l41 125h105q13 100 38.5 184.5t68 157t99.5 122.5t135 78.5t173 28.5q109 0 196 -30.5t133 -73.5z" />
    <glyph glyph-name="trademark" unicode="&#x2122;" horiz-adv-x="2048" 
d="M233 606v813h-215v97h543v-97h-215v-813h-113zM678 606v910h160l336 -748l335 748h162v-910h-112v762h-5l-333 -762h-95l-331 760h-4v-760h-113z" />
    <glyph glyph-name="partialdiff" unicode="&#x2202;" horiz-adv-x="974" 
d="M211 1284l-78 100q137 58 270 58q141 0 246 -67t191 -212q42 -68 66 -202.5t24 -217.5q0 -317 -84 -497q-48 -105 -102 -172.5t-132 -106.5q-86 -45 -180 -45q-119 0 -217 62q-170 113 -170 327q0 91 33 172.5t76 137.5q113 145 295 145q83 0 141 -24.5t170 -100.5
q16 136 16 215q0 70 -23 162t-53 151q-37 74 -104.5 130.5t-163.5 56.5q-60 0 -110 -16t-111 -56zM211 258q0 -60 26 -134.5t80 -105.5q75 -43 158 -8q90 37 158 176q71 154 110 369q-9 8 -36 33t-41 36t-39.5 27.5t-52.5 23t-58 5.5q-140 -3 -209 -105q-96 -133 -96 -317z
" />
    <glyph glyph-name="summation" unicode="&#x2211;" horiz-adv-x="1228" 
d="M31 0l600 678l-596 768h1032l10 -272h-35q-2 5 -5 16q-8 27 -13 40t-14.5 33t-19.5 29t-27.5 20.5t-40.5 16.5t-55 8.5t-74 3.5h-467l481 -618l-518 -584h639q50 0 84.5 12.5t61 45t44.5 68t43 100.5h39q-34 -136 -45.5 -197t-28.5 -188q-50 12 -75 14q-37 6 -62 6h-958z
" />
    <glyph glyph-name="radical" unicode="&#x221a;" horiz-adv-x="927" 
d="M651 -119l-440 907l-162 -77l-35 69l262 129l316 -647l209 1286l114 -18z" />
    <glyph glyph-name="notequal" unicode="&#x2260;" horiz-adv-x="1124" 
d="M1100 231h-631l-164 -290l-131 75l121 215h-270v150h356l154 274h-510v152h596l170 301l131 -76l-127 -225h305v-152h-393l-152 -274h545v-150z" />
    <glyph glyph-name="lessequal" unicode="&#x2264;" horiz-adv-x="1124" 
d="M53 0v158h1018v-158h-1018zM1071 1348v-154l-835 -375l835 -377v-153l-1018 454v150z" />
    <glyph glyph-name="greaterequal" unicode="&#x2265;" horiz-adv-x="1124" 
d="M53 0v158h1018v-158h-1018zM53 1348l1018 -455v-150l-1018 -454v153l834 377l-834 375v154z" />
    <glyph glyph-name="lozenge" unicode="&#x25ca;" horiz-adv-x="964" 
d="M420 0l-389 743l389 730h127l389 -730l-389 -743h-127zM193 743l290 -567l291 567l-291 553z" />
    </font>
</defs>
</svg>
